<svg id="Layer_1" data-name="Layer 1" xmlns="http://www.w3.org/2000/svg" viewBox="0 0 80 72"><defs><style>.cls-1,.cls-4{fill:#fff;}.cls-1,.cls-2{stroke:#004870;stroke-miterlimit:10;stroke-width:2px;}.cls-2{fill:none;}.cls-3{fill:#f90;}</style></defs><rect class="cls-1" x="9.28" y="18.49" width="61.43" height="35.02" rx="2.58"/><line class="cls-2" x1="22" y1="27.6" x2="58" y2="27.6"/><line class="cls-2" x1="19.68" y1="34.79" x2="60.32" y2="34.79"/><line class="cls-2" x1="19.68" y1="40.83" x2="60.32" y2="40.83"/><polygon class="cls-3" points="64.77 49.66 62.6 50.83 60.44 49.66 56.97 56.08 59.05 55.72 59.9 57.65 62.6 52.63 65.31 57.65 66.16 55.72 68.24 56.08 64.77 49.66"/><path class="cls-3" d="M67.78,48.07a5.18,5.18,0,1,0-5.18,5.18A5.18,5.18,0,0,0,67.78,48.07Z"/><path class="cls-4" d="M66.22,48.07a3.62,3.62,0,1,0-3.62,3.62A3.62,3.62,0,0,0,66.22,48.07Z"/></svg>