<svg id="Layer_1" data-name="Layer 1" xmlns="http://www.w3.org/2000/svg" viewBox="0 0 80 72"><defs><style>.cls-1{fill:#fcd09a;}.cls-2{fill:#2e536b;}.cls-3{fill:#a6cfe5;}.cls-4{fill:#0f2d38;}.cls-5{fill:#f90;}.cls-6{fill:#004870;}.cls-7{fill:#3d5f75;}.cls-8{fill:#e0e0e0;}.cls-9{fill:#fff;}</style></defs><path class="cls-1" d="M33.58,38.44l.48-.42.76-.74a.63.63,0,0,1,.24-.16s1.73-1,2-.79-.23.52-.23.52l-1,.77,1.5-.25a.82.82,0,0,0,.26-.1s.92-.94,1.24-.76-.06,1.09-.06,1.09a.73.73,0,0,1-.28.55L36.7,39.51a.81.81,0,0,1-.33.14L34.58,40a.75.75,0,0,1-.85-.61Z"/><path class="cls-1" d="M46.71,38.63l-.48-.42-.76-.74a.78.78,0,0,0-.24-.16s-1.74-1-2-.79.22.53.22.53l1,.76L43,37.56a.82.82,0,0,1-.26-.1s-.93-.94-1.24-.75.06,1.08.06,1.08a.73.73,0,0,0,.28.55l1.77,1.36a.66.66,0,0,0,.32.14l1.8.31a.74.74,0,0,0,.85-.61Z"/><rect class="cls-2" x="28.95" y="39.83" width="22.1" height="2.26"/><polygon class="cls-1" points="18.47 31.53 20.89 31.99 21.55 29.32 19.13 28.86 18.47 31.53"/><path class="cls-3" d="M35.74,64c-4.78,0-5.43.14-6.34,0-.73-.06.18-2.93.18-2.93l2.5.05a8.44,8.44,0,0,0,3.07,1.66C36,63.1,36.12,64,35.74,64Z"/><path class="cls-4" d="M21,45.15l8,1.05a2.09,2.09,0,0,1,1.79,1.25l2,13.72-3.84-.05L27.55,50.35s-7.69.41-10.5.19c-2.5-.19-1.64-3.27-1.56-4.42C15.5,46,21,45.15,21,45.15Z"/><path class="cls-5" d="M15.36,46.1s-.65-5.82,1.91-14.34c.52-1.72,2.93-1.59,4.93.23,1.67,1.52,6.4,5,6.4,5l5.54,1v1.82l-6.23.07c-.37,0-5.71-2.5-5.71-2.5S20.82,45,20.78,45.15,16.92,45.89,15.36,46.1Z"/><path class="cls-1" d="M20.31,27.32s-.65.17-.6-1.18,1,0,1.39-.13c.65-.17.43-2.1.95-2.54.23-.19.57-.11,1.17-.32a1.4,1.4,0,0,0,.62-.53,4.14,4.14,0,0,1,.35.62,15.18,15.18,0,0,1,.52,1.8c.38,2.53-.23,4-1.91,4.73l0,0a3.35,3.35,0,0,1-3.85-.93C20.22,29.24,20.31,27.32,20.31,27.32Z"/><path class="cls-4" d="M17.06,26.22c-.3-2-.4-3.6,1.41-4.87s5.62-.45,5.63,1.27a.71.71,0,0,1-.48.61c-.6.22-1.34.05-1.57.24-.52.44-.3,2.37-.95,2.54-.38.11-1.35-1.27-1.39.13s.6,1.18.6,1.18-.09,1.92-1.39,1.54A4.78,4.78,0,0,1,17.06,26.22Z"/><path class="cls-6" d="M27.85,54h-16v0a3.61,3.61,0,0,1,3.61-3.61h8.73A3.62,3.62,0,0,1,27.85,54Z"/><path class="cls-6" d="M11.93,53.47,9.42,30.73h0c2-.22,3.93,2.64,4.34,6.38l1,9.19c.41,3.74-.86,7-2.84,7.17Z"/><rect class="cls-6" x="19.25" y="52.96" width="1.24" height="9.21"/><path class="cls-6" d="M24.27,64.09H15.46v0a2.41,2.41,0,0,1,2.4-2.4h4a2.4,2.4,0,0,1,2.4,2.4Z"/><polygon class="cls-1" points="61.53 31.53 59.11 31.99 58.45 29.32 60.87 28.86 61.53 31.53"/><path class="cls-3" d="M44.26,64c4.78,0,5.42.14,6.34,0,.73-.06-.18-2.93-.18-2.93l-2.5.05a8.44,8.44,0,0,1-3.07,1.66C44,63.1,43.88,64,44.26,64Z"/><path class="cls-4" d="M59,45.15,51,46.2a2.09,2.09,0,0,0-1.79,1.25l-2,13.72,3.84-.05,1.36-10.77s7.69.41,10.5.19c2.5-.19,1.64-3.27,1.56-4.42C64.5,46,59,45.15,59,45.15Z"/><path class="cls-6" d="M64.64,46.1s.65-5.82-1.91-14.34C62.21,30,59.8,30.17,57.8,32c-1.67,1.52-6.4,5-6.4,5l-5.54,1v1.82l6.23.07c.37,0,5.71-2.5,5.71-2.5s1.38,7.62,1.42,7.75S63.08,45.89,64.64,46.1Z"/><path class="cls-1" d="M59.69,27.32s.65.17.6-1.18-1,0-1.39-.13c-.65-.17-.43-2.1-.95-2.54-.23-.19-.57-.11-1.17-.32a1.4,1.4,0,0,1-.62-.53,4.14,4.14,0,0,0-.35.62,15.18,15.18,0,0,0-.52,1.8c-.38,2.53.23,4,1.91,4.73l0,0a3.35,3.35,0,0,0,3.85-.93C59.78,29.24,59.69,27.32,59.69,27.32Z"/><path class="cls-4" d="M62.94,26.22c.3-2,.4-3.6-1.41-4.87s-5.62-.45-5.63,1.27a.71.71,0,0,0,.48.61c.6.22,1.34.05,1.57.24.52.44.3,2.37.95,2.54.38.11,1.35-1.27,1.39.13s-.6,1.18-.6,1.18.09,1.92,1.39,1.54A4.83,4.83,0,0,0,62.94,26.22Z"/><path class="cls-6" d="M52.15,54h16v0a3.61,3.61,0,0,0-3.61-3.61H55.77A3.62,3.62,0,0,0,52.15,54Z"/><path class="cls-6" d="M68.07,53.47l2.51-22.74h0c-2-.22-3.93,2.64-4.34,6.38l-1,9.19c-.41,3.74.86,7,2.84,7.17Z"/><rect class="cls-6" x="59.51" y="52.96" width="1.24" height="9.21"/><path class="cls-6" d="M55.73,64.09h8.81v0a2.41,2.41,0,0,0-2.4-2.4h-4a2.4,2.4,0,0,0-2.39,2.4Z"/><rect class="cls-7" x="33.36" y="41.8" width="13.28" height="22.28"/><rect class="cls-5" x="38.11" y="18.77" width="14.14" height="11.74" rx="5.16"/><polygon class="cls-5" points="54.96 29.82 52.12 26.47 47.95 28.33 54.96 29.82"/><rect class="cls-8" x="27.04" y="7.91" width="14.14" height="11.74" rx="5.16"/><polygon class="cls-8" points="24.32 18.96 27.16 15.61 31.33 17.47 24.32 18.96"/><path class="cls-6" d="M33.86,16.65h0a2.37,2.37,0,0,1-2.36-2.37V12.64a2.38,2.38,0,0,1,4.76,0v1.64A2.37,2.37,0,0,1,33.86,16.65Zm0-5.36a1.36,1.36,0,0,0-1.39,1.35v1.64a1.36,1.36,0,0,0,1.35,1.36h0a1.35,1.35,0,0,0,1.35-1.36V12.64A1.34,1.34,0,0,0,33.86,11.29Z"/><path class="cls-6" d="M36.25,17.29a.51.51,0,0,1-.36-.15l-2.07-2.06a.51.51,0,0,1,0-.71.51.51,0,0,1,.72,0l2.07,2.06a.51.51,0,0,1,0,.71A.51.51,0,0,1,36.25,17.29Z"/><path class="cls-9" d="M43.09,27.73a.46.46,0,0,1-.19,0,.52.52,0,0,1-.28-.66l2.09-5.15a.5.5,0,0,1,.46-.32.51.51,0,0,1,.47.32L47.72,27a.5.5,0,0,1-.28.66.49.49,0,0,1-.65-.28l-1.62-4-1.61,4A.51.51,0,0,1,43.09,27.73Z"/><path class="cls-9" d="M46.33,25.93H43.82a.5.5,0,0,1-.51-.5.51.51,0,0,1,.51-.51h2.51a.5.5,0,0,1,.5.51A.5.5,0,0,1,46.33,25.93Z"/></svg>