<svg xmlns="http://www.w3.org/2000/svg" xmlns:xlink="http://www.w3.org/1999/xlink" viewBox="0 0 80 72"><defs><style>.cls-1,.cls-15,.cls-16,.cls-2{fill:none;}.cls-1{stroke:#004870;}.cls-1,.cls-15,.cls-16,.cls-19{stroke-miterlimit:10;}.cls-3{isolation:isolate;}.cls-4{fill:#004870;}.cls-5{fill:#232020;opacity:0.09;}.cls-6{fill:#ffdd7d;}.cls-7{fill:#bb7453;}.cls-8{fill:#c1b39a;}.cls-9{fill:#414042;}.cls-10{fill:#fffff4;}.cls-11{fill:#bbbcc0;}.cls-12{fill:#00927e;}.cls-13{fill:#33444b;}.cls-14,.cls-19{fill:#fff;}.cls-15{stroke:#2b2e55;}.cls-15,.cls-16{stroke-width:1.07px;}.cls-16{stroke:#201b34;}.cls-17{clip-path:url(#clip-path);}.cls-18{fill:#ddd3b5;opacity:0.4;mix-blend-mode:multiply;}.cls-19{stroke:#fff;stroke-width:0.58px;}.cls-20{clip-path:url(#clip-path-2);}.cls-21{fill:#e3e3e3;}</style><clipPath id="clip-path"><circle class="cls-1" cx="27.48" cy="42.29" r="4.05" transform="translate(-21.86 31.81) rotate(-45)"/></clipPath><clipPath id="clip-path-2"><ellipse class="cls-2" cx="18.06" cy="42.07" rx="5.81" ry="3.7" transform="translate(-26.61 52.11) rotate(-79.43)"/></clipPath></defs><g class="cls-3"><g id="Layer_1" data-name="Layer 1"><rect class="cls-4" x="16.88" y="19.02" width="52.8" height="40.36" transform="translate(0.88 79.35) rotate(-85.6)"/><path class="cls-5" d="M60.93,21.43,48.08,23.06a15.37,15.37,0,0,1-6.22-.48L29.41,19a5.38,5.38,0,0,1-3.95-5.7l.13-1.6L65.4,14.42l-.1,2C65.1,19.13,63.48,21.2,60.93,21.43Z"/><path class="cls-4" d="M60.51,21.05,47.65,22.69a15.51,15.51,0,0,1-6.21-.48L29,18.63A5.37,5.37,0,0,1,25,12.93l.12-1.61,40.24,3.1L65.28,16A5.38,5.38,0,0,1,60.51,21.05Z"/><path class="cls-6" d="M44.06,32.08a3.2,3.2,0,0,1-2.94-3.42L41.71,21a3.19,3.19,0,1,1,6.36.48l-.59,7.63A3.18,3.18,0,0,1,44.06,32.08Zm1-13.71A2.91,2.91,0,0,0,42,21.06l-.59,7.62a2.91,2.91,0,1,0,5.81.44l.59-7.62A2.93,2.93,0,0,0,45.11,18.37Z"/><circle class="cls-7" cx="44.97" cy="20.21" r="3.05"/><circle class="cls-8" cx="44.97" cy="20.21" r="1.56"/><path class="cls-9" d="M45.7,20.27a.73.73,0,0,1-.78.67.74.74,0,0,1-.67-.79.73.73,0,0,1,.78-.67A.74.74,0,0,1,45.7,20.27Z"/><circle class="cls-7" cx="44.23" cy="29.81" r="3.05"/><circle class="cls-8" cx="44.23" cy="29.81" r="1.56"/><path class="cls-9" d="M45,29.87a.73.73,0,0,1-1.45-.11.71.71,0,0,1,.78-.67A.73.73,0,0,1,45,29.87Z"/><rect class="cls-10" x="18.82" y="10.27" width="37.79" height="52.13"/><path class="cls-11" d="M30.44,20.65H51.63a.45.45,0,0,0,0-.9H30.44a.45.45,0,0,0,0,.9Z"/><path class="cls-11" d="M23.74,25.94H51.63a.45.45,0,0,0,0-.89H23.74a.45.45,0,0,0,0,.89Z"/><path class="cls-11" d="M23.74,31.23H51.63a.45.45,0,0,0,0-.89H23.74a.45.45,0,0,0,0,.89Z"/><path class="cls-11" d="M23.74,36.53H51.63a.45.45,0,0,0,0-.89H23.74a.45.45,0,0,0,0,.89Z"/><path class="cls-11" d="M23.74,41.82H51.63a.45.45,0,0,0,0-.89H23.74a.45.45,0,0,0,0,.89Z"/><path class="cls-12" d="M24.36,55.11H36.28a.25.25,0,0,0,0-.5H24.36a.25.25,0,0,0,0,.5Z"/><path class="cls-13" d="M34,52.84a3.1,3.1,0,0,1-1.31.17l-.07-.18c0-.14-.27-.17-.3,0s-.12.51-.29.28,0-.34,0-.49a.67.67,0,0,0-.09-.5c-.13-.16-.48-.31-.64-.11s.12.74-.18,1.09c-.17.2-.49.07-.66-.09a1.15,1.15,0,0,0,0-1.15.17.17,0,0,0-.28,0A1.53,1.53,0,0,0,30,53a.46.46,0,0,1-.49,0,1.89,1.89,0,0,0,.23-1.52.17.17,0,0,0-.31,0A1.83,1.83,0,0,0,29,52.63a.7.7,0,0,0,.11.38,1.54,1.54,0,0,1-1,.51.64.64,0,0,0,0-.07L28,53.17c0-.22,0-.44,0-.66l.11-.16a5.93,5.93,0,0,0,.49-.84,6.88,6.88,0,0,0,.65-3.76.17.17,0,0,0-.28-.11,2.13,2.13,0,0,0-.64,1.09,15.29,15.29,0,0,0-.41,1.65,14.94,14.94,0,0,0-.23,2l0,.06a.83.83,0,0,0,0,.82c0,.14,0,.28,0,.42a.16.16,0,0,0,.16.16h0a5.59,5.59,0,0,1,.16.91,6.77,6.77,0,0,1-.23,2.61c-.32-.15-.36-1.84-.37-2.07a14.88,14.88,0,0,1,.07-1.77.14.14,0,0,0,.06-.15l0-.24a.16.16,0,0,0-.3,0,10.37,10.37,0,0,0-.12,2.16c0,.37.05.75.09,1.12a3.12,3.12,0,0,0,.17.91c.14.33.62.61.76.14a6.83,6.83,0,0,0,.28-2,7.39,7.39,0,0,0-.19-1.62,1.86,1.86,0,0,0,1.15-.57,1,1,0,0,0,.21.11.73.73,0,0,0,.66-.13.52.52,0,0,0,.11.1.75.75,0,0,0,1.17-.3,1.58,1.58,0,0,0,0-.78.1.1,0,0,1,.14,0c.1.08.05.34,0,.45a.9.9,0,0,0,.05.46.51.51,0,0,0,.47.31.37.37,0,0,0,.3-.23s.05,0,.08,0a3.1,3.1,0,0,0,1.51-.17C34.25,53.08,34.17,52.77,34,52.84ZM28.2,50.58c.09-.48.2-.95.33-1.42a3.36,3.36,0,0,1,.41-1,6.72,6.72,0,0,1-.9,3.67C28.08,51.4,28.13,51,28.2,50.58ZM29.47,52a1.55,1.55,0,0,1-.17.71A1.12,1.12,0,0,1,29.47,52Z"/><path class="cls-13" d="M34.79,53.51a.14.14,0,0,0,0,.27A.14.14,0,0,0,34.79,53.51Z"/><path class="cls-4" d="M10.54,37.11H32.79a3.28,3.28,0,0,1,3.28,3.28V63.57a3.28,3.28,0,0,1-3.28,3.28H10.54a0,0,0,0,1,0,0V37.11A0,0,0,0,1,10.54,37.11Z"/><path class="cls-14" d="M11.24,34.95H31.59A3.41,3.41,0,0,1,35,38.36V62.43a3.41,3.41,0,0,1-3.41,3.41H11.24a0,0,0,0,1,0,0V34.95A0,0,0,0,1,11.24,34.95Z"/><line class="cls-15" x1="14.54" y1="50.05" x2="31.69" y2="50.05"/><line class="cls-15" x1="14.54" y1="53.44" x2="31.69" y2="53.44"/><line class="cls-15" x1="14.54" y1="56.84" x2="31.69" y2="56.84"/><line class="cls-15" x1="14.54" y1="60.23" x2="31.69" y2="60.23"/><circle class="cls-16" cx="27.48" cy="42.29" r="4.05" transform="translate(-21.86 31.81) rotate(-45)"/><g class="cls-17"><path class="cls-4" d="M30.09,45s-1-.33-1.38-.48a.63.63,0,0,1-.46-.53.93.93,0,0,0,.13-.15l.25-.39a1.64,1.64,0,0,0,.25-.72.24.24,0,0,0,.14-.12v0l.16-.37a.26.26,0,0,0-.14-.31h0a.17.17,0,0,0-.14,0v-.64c0-.22.09-.78-.24-1-.53-.36-1.59-.43-1.87,0-.83-.13-.83.5-.83,1l.05.56-.08,0h0a.25.25,0,0,0-.14.31l.15.37v0a.27.27,0,0,0,.14.12,1.74,1.74,0,0,0,.26.72l.26.4a.81.81,0,0,0,.18.19.64.64,0,0,1-.46.47l-1.43.5A1.35,1.35,0,0,0,24,46.32v.18h7v-.19A1.36,1.36,0,0,0,30.09,45Z"/></g><circle class="cls-1" cx="27.48" cy="42.29" r="4.05" transform="translate(-21.86 31.81) rotate(-45)"/><rect class="cls-18" x="11.24" y="34.95" width="17.92" height="30.89"/><path class="cls-4" d="M24.86,29.44,10.54,34.3V66.85l14.32-2.7a1.31,1.31,0,0,0,.73-1.27V30.34C25.59,29.74,25.26,29.34,24.86,29.44Z"/><ellipse class="cls-19" cx="18.06" cy="42.07" rx="5.81" ry="3.7" transform="translate(-26.61 52.11) rotate(-79.43)"/><g class="cls-20"><polygon class="cls-21" points="24.45 44.19 24.45 44.19 24.45 44.19 24.45 44.19"/><path class="cls-21" d="M21.2,36.58c0-.1.2-.18.25-.08s0,0,0,0h0s-.26.09-.24,0S21.2,36.6,21.2,36.58Z"/><path class="cls-4" d="M20.19,36.85a.82.82,0,0,1,.35-.56c.1-.06.15,0,.05.13h0a1.79,1.79,0,0,0-.2.28.63.63,0,0,0-.06.27c0,.07.05.12,0,.12s-.1-.15-.09-.23S20.18,36.88,20.19,36.85Z"/><path class="cls-4" d="M19.43,36.92c0-.05.11-.12.12-.05s0,.06-.05.11,0,.09,0,.1h0s-.05-.06,0-.16S19.42,37,19.43,36.92Z"/><path class="cls-4" d="M19.07,36.94c0,.08.19-.07.25,0s-.07.37-.16.25c.16-.15-.13-.09-.09-.23C19.09,37,19.06,37,19.07,36.94Z"/><path class="cls-4" d="M17.16,37.53c.12,0,.15-.15.16-.27l.23-.07a3,3,0,0,1-.22.37c0,.07-.4.28-.38.09Z"/><path class="cls-4" d="M16.91,37.41c0-.06.21-.11.2,0s-.23.15-.2,0S16.91,37.44,16.91,37.41Z"/><path class="cls-4" d="M16.89,37.85c0-.19.3,0,.29,0s-.29,0-.29,0S16.89,37.87,16.89,37.85Z"/><path class="cls-4" d="M16.86,38.1c.06-.11.19-.05.27,0s0,.08,0,.09.08,0,.11,0a.61.61,0,0,1,0,.3s0,0-.05,0a.86.86,0,0,1-.07.1c-.07.08,0,.07-.11,0s-.1-.08-.1-.06.18-.15.19-.15c0-.18-.33-.22-.28-.31Z"/><path class="cls-21" d="M16.73,38s.06-.07.06,0S16.72,38.06,16.73,38Z"/><path class="cls-21" d="M16.56,38.08s.07,0,.1,0-.15.11-.1,0S16.56,38.09,16.56,38.08Z"/><path class="cls-21" d="M15.59,38.06c.14-.12.19-.19.32-.12S16,38,16,38s.1-.05.13,0l0,.05c0-.06.21.22,0,.24-.05,0-.09-.07-.13-.07s-.1.08-.16.1-.24.05-.22,0,.31,0,.11-.18c0,0-.24,0-.18,0S15.58,38.06,15.59,38.06Z"/><path class="cls-21" d="M13.4,40.16c0,.07-.21.27-.17.09s.18-.25.17-.09Z"/><path class="cls-21" d="M14.34,42.63c-.06.08-.09-.18-.09-.22S14.38,42.58,14.34,42.63Z"/><path class="cls-4" d="M15.76,43.79c-.06,0-.06-.15-.1-.19s-.06,0-.1,0-.06-.09-.1-.13-.11,0-.21-.05a1.07,1.07,0,0,1-.36-.2.76.76,0,0,1-.34-.43c0-.1-.09-.19-.13-.28s0-.12-.07-.16-.07,0-.09-.07a.15.15,0,0,0,0,.07c0-.11.05-.23,0-.31s-.09,0-.12,0a.67.67,0,0,1-.06-.17,1.06,1.06,0,0,1,.1-.75.49.49,0,0,1,.06-.17s.06,0,.06,0,.06-.06.05-.19,0-.06,0-.09,0-.08,0-.11,0-.23,0-.34.15-.49,0-.61-.17,0-.23,0-.14,0-.27,0a2.24,2.24,0,0,0-.38.29c-.1.09-.25.29-.36.34s.16-.15.17-.24-.11.08-.14,0,.14-.27.16-.29.09,0,.09-.08-.09,0-.1-.08.17-.08.2-.11,0-.13.08-.2a1.61,1.61,0,0,1,.53-.42c.19-.1.41,0,.59-.15a1.43,1.43,0,0,1,.15-.11c.09,0,.2,0,.29-.07a1.37,1.37,0,0,1,.48-.13.7.7,0,0,0,.14,0c0,.07,0,.08.05,0a.52.52,0,0,0,.11-.1c.11-.07.11,0,.21,0s.17-.09.25-.07.06.22.22,0,0-.17.09,0,0,.18,0,.18.05-.21.13-.15,0,.12,0,.18a1.38,1.38,0,0,1-.25.17l-.1.08c-.09.06-.35.09-.38.24a.37.37,0,0,0,.13.32s.08,0,.09,0,0,.15,0,.15,0-.1.05-.11l.08,0c.06,0,.09,0,.14-.1s.18-.54.36-.45,0,0,.05.18,0,.11.1.07.08-.11.11,0-.11.34-.06.4.07-.08.09,0a.26.26,0,0,1-.09.19c-.08.1-.37.1-.4.32.07,0,.2-.26.21-.11s-.06.16-.06.25S17,40,17,40s-.25.28-.26.26.09-.1.07-.14-.23.33-.24.39,0,.25,0,.26l-.13.12a2.35,2.35,0,0,0-.19.25c-.12.17-.07.12-.11.34a1.4,1.4,0,0,1-.14.39,1,1,0,0,0-.06.37c0,.06,0,.22-.05.21s0-.22-.08-.25-.15.13-.2.18a.71.71,0,0,0-.22.66c0,.1.06.19.14.15s.11-.31.18-.31,0,.29,0,.34,0,.14,0,.19.07,0,.09,0,0,.24.1.33.2.11.2.13-.23-.07-.25-.07Z"/><path class="cls-21" d="M14.16,40.71c0-.15.07,0,.05,0s-.06.18-.05,0Z"/><path class="cls-21" d="M16.68,38.62s0,.05,0,0l0,0S16.66,38.62,16.68,38.62Z"/><path class="cls-21" d="M16.79,43c-.06,0,0-.08,0,0Z"/><path class="cls-4" d="M16.15,42.91c-.11,0-.13-.12-.25-.16s.35,0,.41,0,.16,0,.1.08S16.23,42.89,16.15,42.91Z"/><path class="cls-4" d="M16.21,43.1c-.06.16-.09,0-.07,0S16.25,43,16.21,43.1Z"/><path class="cls-21" d="M16,42.42a.16.16,0,0,1,0,.07S16,42.35,16,42.42Z"/><path class="cls-21" d="M16,42.21s0,0,0-.05S16,42.28,16,42.21Z"/><path class="cls-4" d="M16.48,43c.05,0,0-.08.07-.1s.09,0,.1.08-.16.06-.21,0l0,0Z"/><path class="cls-21" d="M17.41,47.37c0,.15-.25-.12-.12-.15S17.41,47.37,17.41,47.37Z"/><path class="cls-21" d="M17.5,47.22c-.09,0,0-.11,0-.09S17.58,47.21,17.5,47.22Z"/><path class="cls-4" d="M17.73,44.48a.69.69,0,0,0-.05.42,1.13,1.13,0,0,1,0,.41s-.06.07-.08.09l-.08.13,0,0s0,.17,0,.18h0c0,.07-.05.15-.08.22s-.09.12-.11.17-.05,0-.05,0a.1.1,0,0,1,0,.07.77.77,0,0,1-.08.19c0-.05,0,.17,0,.11s0,0,0,0a.2.2,0,0,0,0,.08c0,.14,0,.27,0,.41s0,.15-.06.19-.1,0-.13-.07a.71.71,0,0,1-.2-.25c0-.08,0-.23-.08-.33a2.47,2.47,0,0,1-.1-.43c0-.17,0-.35-.09-.51s0-.44-.13-.51-.15,0-.23-.08a1.19,1.19,0,0,1-.17-.36.56.56,0,0,1,0-.28s0,0,0-.1.08-.12.09-.21a.82.82,0,0,0,0-.18c0-.15,0,0,.06-.08s.16-.24.18-.23,0,.15,0,.15,0-.1,0-.11a.5.5,0,0,0,.12,0c.11,0,.14-.08.26,0l.16.08c.12.07.05.07,0,.23s0,0,.07,0,0,.06,0,.08.17-.13.13.08c.11-.08.3.06.4.1s.31.06.25.26Z"/><path class="cls-4" d="M17.82,38.08c-.11.3-.34.09-.26-.18,0-.1.14-.17.13-.3s-.15-.07-.22-.14a3.44,3.44,0,0,0,.27-.27c.13-.16.27-.11.42-.2a1.23,1.23,0,0,1,.39-.18s.33-.09.33,0-.11.09-.12.13,0,.08,0,.12a.37.37,0,0,1-.11.15h0c-.11,0-.08,0-.09.12s-.06-.06-.09,0a.06.06,0,0,0,0,.07s0,0,0,0l-.14.08c-.1,0-.2,0-.31.12A1.65,1.65,0,0,0,17.82,38.08Z"/><path class="cls-4" d="M18.76,37.69s-.32.34-.32.15.33-.17.32-.15S18.76,37.68,18.76,37.69Z"/><path class="cls-4" d="M18.37,39.54a1.72,1.72,0,0,1-.05.63c-.05.2-.08.17-.21.22h0c0-.07.05-.3,0-.34h0a1,1,0,0,0,.12-.23c0-.14,0-.27,0-.4s.06-.12.11-.08,0,.06,0,.2S18.36,39.49,18.37,39.54Z"/><path class="cls-4" d="M17.92,40.09S18,40,18,40s0,0,0-.07,0-.26.12-.3,0-.06.07,0a.35.35,0,0,1,0,.2S17.92,40.17,17.92,40.09Z"/><path class="cls-21" d="M18.06,42.11c0,.06,0,0,0,0Z"/><path class="cls-21" d="M18,42.13s0,0,0,0,0,0,0,0Z"/><path class="cls-21" d="M18,42.07Z"/><path class="cls-4" d="M20.7,43.64c0,.13,0,.59-.13.67s-.19-.17-.17-.31,0-.12.05-.18a.26.26,0,0,0,0-.14.45.45,0,0,1,0-.22c0-.06.08-.06.1-.13s0-.21,0-.21.11.44.1.52S20.7,43.6,20.7,43.64Z"/><path class="cls-21" d="M21.61,41.87s0,0,0,0Z"/><path class="cls-21" d="M23,42.66c-.06.09-.13,0-.18,0a.48.48,0,0,1-.25-.22h0s-.06,0-.06-.06a2.25,2.25,0,0,1-.27-.26,2.89,2.89,0,0,1,.47.19S23.06,42.58,23,42.66Z"/><path class="cls-21" d="M22.56,41.81a.13.13,0,0,1,0,.06S22.55,41.85,22.56,41.81Z"/><path class="cls-21" d="M22.75,42a.16.16,0,0,0-.09,0c.06-.05.34.12.33.16s-.21-.11-.24-.13Z"/><path class="cls-21" d="M23.72,42.73s-.07.05-.1,0-.28.06-.33,0h0s-.12,0-.12-.09.5,0,.54,0h0Z"/><path class="cls-21" d="M23.3,40.58c.12-.16.09.06.06.07s-.09,0-.06-.07Z"/><path class="cls-21" d="M23.8,42.27l0,.08h0c-.09,0-.15.14-.25.11a.26.26,0,0,1-.15-.26c0-.11.18-.15.24-.28s0-.15.05-.19.11-.11.16-.19a6.1,6.1,0,0,1,0,.74S23.8,42.19,23.8,42.27Z"/><path class="cls-21" d="M23.64,41.46a1.48,1.48,0,0,1,.08-.13c.05,0,0,.12,0,.16s-.14,0-.1,0Z"/><path class="cls-21" d="M23.83,40s0-.06.06-.06S23.77,40.19,23.83,40Z"/><path class="cls-21" d="M23.92,40.39s0,0,0,.06,0,0,0,0h0s-.08.14,0,.08-.09-.14-.05-.2h0s0,0,0,0,0,.07,0,.08Z"/><path class="cls-21" d="M24,40.77s0,0,0,0-.2-.18-.09-.23.07.2.09.17,0,0,0,0Z"/><path class="cls-21" d="M24.43,41.1c.14.08,0,.25-.06.3l0,0s-.06-.07-.09-.05h0l-.06,0c0-.1.11-.16.12-.18s.05-.15.11-.2a.07.07,0,0,0,0,.08Z"/><path class="cls-21" d="M24.53,38.94l0,0h0s0,0,0,0h0c.06-.07.14-.08.19-.14a.9.9,0,0,0,.11-.44.56.56,0,0,0,0-.12.24.24,0,0,0,0-.08s0-.18.05-.22.17.08.19.17,0,.14-.05.21a2.46,2.46,0,0,0,0,.26.57.57,0,0,1-.21.43c-.05,0-.35,0-.37.13,0-.06.06-.11.08-.16Z"/><path class="cls-21" d="M24.67,42.7c-.05.1-.13.12-.18.2h0c-.09.14-.08,0,0-.09s.18-.2.2-.16S24.67,42.68,24.67,42.7Z"/><path class="cls-21" d="M24.27,42.75s0,0,0,0h.11c.08.06-.11.23-.1,0Z"/><path class="cls-21" d="M24.24,41.7s0,0,.05,0-.07.08-.09.1h0c-.14.21,0,.21,0,.38s0,.2-.06.08-.16.25-.19,0a1.4,1.4,0,0,1,.08-.34c.07-.2.1-.1.2-.23Z"/><path class="cls-21" d="M24.17,42.6h0s0,0,0,0,0,0,.05,0S24.17,42.59,24.17,42.6Z"/><path class="cls-21" d="M24,42.61h0s0-.12,0-.06S24,42.61,24,42.61Z"/><path class="cls-21" d="M25.26,43.63a3,3,0,0,1-.19.55.54.54,0,0,1-.27.36s-.22.15-.25.12,0-.25,0-.26,0-.07,0-.25c0,0-.07,0-.07.05h0s0,.06,0,0,0-.12-.1-.1-.13.21-.21.3-.15.11-.21.2,0,0-.06,0a.48.48,0,0,1,.06-.18,4,4,0,0,0-.05-.59c0-.22.06-.2.17-.34s.18-.28.3-.42.05.08.1,0,0-.12.06-.15.08,0,.12,0,.08-.05.1.06,0,.14,0,.15.11.16.16,0-.06-.51.08-.37,0,.23.1.3.27.15.23.44C25.26,43.67,25.27,43.59,25.26,43.63Z"/><path class="cls-21" d="M25.29,42.52c-.11-.06-.24.16-.34.06s0-.14-.08-.19l0,0s-.14.05-.18.05,0,0-.07,0-.07,0-.08,0,.07-.09,0-.19,0,0,0-.08c0-.22.14,0,.18,0a.65.65,0,0,1,.12-.11l.08,0a.17.17,0,0,1,.1,0h0s.14,0,.16,0,0,.06,0,.07,0,.06,0,.08.29.1.29.24-.19,0-.2,0Z"/><polygon class="cls-21" points="25.4 41.94 25.4 41.94 25.4 41.94 25.4 41.94 25.4 41.94"/><path class="cls-4" d="M25.59,36.19c0,.13-.28.14-.34.2s-.06.17-.17.23-.28,0-.37.16.12.14,0,.31-.07-.05-.1-.08-.16,0-.22.05-.3.21-.29.37.1.11.13.16a1.45,1.45,0,0,1,.09.22.46.46,0,0,1-.08.51c-.08.09-.22,0-.31.08a.34.34,0,0,0,0,.36c0,.06.24,0,.14.2s-.16-.09-.25-.09,0,0-.07,0-.07,0-.09,0a.14.14,0,0,0-.11,0,.45.45,0,0,0-.11.23c0,.12.12-.07.17,0s0,0,0,.06-.05.22,0,.23h0a.54.54,0,0,1,.1.23.93.93,0,0,1,0,.33c-.06.19-.14.14-.25.24h0c-.06,0-.1.1-.15.15s-.09.05-.2.09a.37.37,0,0,0-.17.16c-.11.17-.05.26,0,.42a.6.6,0,0,1-.12.59c0-.14-.1-.1-.17-.14h0c-.07,0-.14-.09-.18,0s0,.21,0,.28a.24.24,0,0,1,0-.12c.06-.1-.16-.21-.2-.2s-.08.09-.12.11,0,0-.12,0-.09,0-.11,0h0s0-.15,0-.16-.06,0-.09-.07-.08-.15-.13-.13-.07.14-.08.18h0l-.09.18h0s0,0,0,0h0c-.09.13.07.52-.09.39s-.11-.46-.24-.58h0l0,.05c-.08.07,0-.09-.05-.13s-.15,0-.23,0a1,1,0,0,1-.45-.12c-.05,0-.11-.11-.08.07s.09.08.15.13,0,0,.08.13,0,.1.07.14.08,0,.09,0-.15.32-.16.34-.23.31-.31.23,0-.09,0-.11a.8.8,0,0,0-.13-.13.7.7,0,0,1-.11-.21,2.91,2.91,0,0,0-.2-.35.73.73,0,0,0,0,.27l.09.26a1.1,1.1,0,0,0,.14.21s.15.17.17.18.24-.21.27-.05a.9.9,0,0,1-.11.39,1.19,1.19,0,0,0-.25.53c0,.19.08.28.07.45a3,3,0,0,1-.13.39c0,.18,0,.11,0,.23a1.16,1.16,0,0,1-.08.45,3.18,3.18,0,0,1-.16.32c-.06.12-.1.22-.2.22h0s-.12.12-.17.1,0-.08-.05-.2a2.08,2.08,0,0,0-.19-.49c0-.11-.09-.18-.13-.27s-.05-.11-.05-.25a.81.81,0,0,0,0-.22c0-.08-.08-.14-.1-.22s.09-.35-.09-.42-.18,0-.28.14-.25.28-.37.26-.21-.31-.27-.44,0-.08,0-.25a.58.58,0,0,1,0-.14l.06-.15a1.66,1.66,0,0,1,.15-.46,2.39,2.39,0,0,1,.24-.48c.05,0,.06,0,.11,0s.12-.18.18-.19.09,0,.16.06.08,0,.13,0,.06.1.11.08,0-.1.09-.14.08,0,.14,0a.51.51,0,0,0,.22-.11c.07-.05.14-.13.21-.13s0,.06.08.08l.1-.13a.37.37,0,0,0,.16-.26c0-.15,0-.15-.15-.13s-.08.07-.14,0,0-.14.05-.2l.13-.11a1.18,1.18,0,0,1,.45-.07c0-.09,0,0,.06-.14s-.16,0-.2-.11,0-.18-.05-.23-.16.26-.21.24,0-.16-.1-.12-.13.29-.16.36,0,.09,0,.12-.07,0-.08.08a1.08,1.08,0,0,0,0,.31s-.1-.05-.11-.06-.06,0-.08,0,0-.15,0-.21-.24,0-.34-.12c0,.18.27.21.27.29a.75.75,0,0,0-.08.18s0-.1,0-.11a.46.46,0,0,0-.14-.07s-.14-.18-.17-.19-.16.13-.19.15-.14.12-.13.19.05,0,.05.08,0,.16-.05.22,0,.21-.1.32-.28.09-.31-.1a1.07,1.07,0,0,1,0-.18c0-.05-.06-.08,0-.14s.19-.06.24-.14a.65.65,0,0,0,0-.31c0-.12,0,0,0-.06s-.15,0-.14,0a.65.65,0,0,1,.11-.12.58.58,0,0,0,.1-.32.81.81,0,0,1,.23-.48h0a.34.34,0,0,0,.16-.19c0-.07,0-.17,0-.21v.09s0,0,0,0-.06.11,0,.13.18-.12.22-.15.11-.07.15-.13,0-.09.08-.13.18-.1.25-.2.08-.06.06,0v-.06l.08-.05c-.1-.1-.16,0-.25.1s-.09,0-.14-.15,0-.14-.12,0a1.18,1.18,0,0,0-.11.19s0,0,0,.07,0,0,0,.06a1,1,0,0,1-.12.27s0-.12-.07-.14,0,0-.07,0-.1.1-.17-.06-.1-.05,0-.17.13-.09.18-.15a1.74,1.74,0,0,0,.15-.4,2.2,2.2,0,0,1,.23-.4c.13-.19.19-.3.37-.28s0,.1.12.2.13,0,.15,0-.06.2-.06.23.15-.05.18-.05,0,0,0-.14a.17.17,0,0,1,.06-.08l.19-.19.06,0a.56.56,0,0,1,.24-.16,1.91,1.91,0,0,0,.32-.24c0-.06-.09-.08-.06-.18s.08-.06.11-.07a.29.29,0,0,1,.2.15c0,.06,0,.18.07.2s0-.24,0-.28.19-.08.22-.1,0,0,0-.08.21-.11.32-.15a.25.25,0,0,1,.18,0s0,.06.09.06a1.33,1.33,0,0,0,.28-.16.41.41,0,0,1,.2-.06c.06,0,.1,0,.17,0a.73.73,0,0,0,.35-.12,1.1,1.1,0,0,1,.14-.09l.09,0c.05,0,0-.1.06-.15s.13,0,.19.07a.27.27,0,0,0,.26,0c.13-.06.2-.17.34-.21a1.14,1.14,0,0,1,.45,0c.15,0,.38-.13.5,0s0,.09,0,.11.08,0,.14,0,.29-.08.33,0c0-.07,0,.18,0,.13S25.59,36.15,25.59,36.19Z"/><path class="cls-21" d="M18.74,41.06s0,0,0,0,0,0,0,0Z"/><path class="cls-21" d="M18.9,40.66s0,0,0,0Z"/><path class="cls-21" d="M18.92,40.86s0,0,0,0,0,.08,0,.09,0,0,0,0Z"/><path class="cls-21" d="M19.13,41s0,0,.05,0S19.12,41.05,19.13,41Z"/><path class="cls-21" d="M20,40.78s0,0,0,0Z"/></g><path class="cls-14" d="M12.65,55l.25-.06v2l-.25.07Zm.11.84.43-.11.08-.05a.31.31,0,0,0,.05-.1.32.32,0,0,0,0-.14.53.53,0,0,0,0-.13.22.22,0,0,0-.06-.07.11.11,0,0,0-.08,0l-.43.11v-.37l.42-.1a.3.3,0,0,1,.23,0,.3.3,0,0,1,.14.18.68.68,0,0,1,.06.31.88.88,0,0,1-.06.33.61.61,0,0,1-.14.25.45.45,0,0,1-.23.13l-.42.11Z"/><path class="cls-14" d="M14.12,54.6l.16,0,.52,1.88-.27.07-.33-1.29-.32,1.45-.27.07ZM13.86,56l.7-.18v.37l-.7.17Z"/><path class="cls-14" d="M15.12,56.35l-.17,0a.71.71,0,0,1-.14-.1l.12-.34a.42.42,0,0,0,.17.1.38.38,0,0,0,.21,0,.32.32,0,0,0,.19-.11.29.29,0,0,0,.07-.2h0a.21.21,0,0,0,0-.12.16.16,0,0,0-.08,0,.47.47,0,0,0-.12,0h0a.75.75,0,0,1-.23,0,.23.23,0,0,1-.15-.13.65.65,0,0,1-.06-.32h0a1,1,0,0,1,.06-.35.62.62,0,0,1,.17-.25.5.5,0,0,1,.27-.14.33.33,0,0,1,.14,0l.15,0,.14.08-.11.35a.51.51,0,0,0-.16-.09.43.43,0,0,0-.16,0,.32.32,0,0,0-.18.1.24.24,0,0,0-.07.18h0a.17.17,0,0,0,0,.13.1.1,0,0,0,.08.05l.14,0h0a.56.56,0,0,1,.21,0,.27.27,0,0,1,.15.13.63.63,0,0,1,.06.31h0a1,1,0,0,1-.07.35.62.62,0,0,1-.17.25.67.67,0,0,1-.28.14A.58.58,0,0,1,15.12,56.35Z"/><path class="cls-14" d="M16.25,56.07a.48.48,0,0,1-.17,0,.42.42,0,0,1-.14-.09l.11-.35a.34.34,0,0,0,.18.11.74.74,0,0,0,.21,0,.43.43,0,0,0,.19-.11.29.29,0,0,0,.07-.2h0a.21.21,0,0,0,0-.12.14.14,0,0,0-.08,0h-.15a.79.79,0,0,1-.23,0,.27.27,0,0,1-.15-.13.67.67,0,0,1-.06-.32h0a1,1,0,0,1,.06-.35.56.56,0,0,1,.17-.25.51.51,0,0,1,.26-.14.26.26,0,0,1,.15,0l.15,0a.57.57,0,0,1,.13.08l-.1.35a.43.43,0,0,0-.16-.09.33.33,0,0,0-.17,0,.4.4,0,0,0-.18.1.28.28,0,0,0-.06.18.23.23,0,0,0,0,.13.16.16,0,0,0,.09.05l.13,0h0a.66.66,0,0,1,.21,0,.27.27,0,0,1,.14.14.63.63,0,0,1,.06.31h0a.9.9,0,0,1-.06.34.69.69,0,0,1-.17.26.82.82,0,0,1-.28.14Z"/><path class="cls-14" d="M17.16,53.84l.26-.06v2l-.26.07Zm.12.83.43-.1.08,0a.37.37,0,0,0,.05-.11.43.43,0,0,0,0-.26.13.13,0,0,0-.05-.07.08.08,0,0,0-.08,0l-.43.1v-.36l.42-.11a.27.27,0,0,1,.22,0,.28.28,0,0,1,.15.17.75.75,0,0,1,.05.31.9.9,0,0,1-.05.34.53.53,0,0,1-.15.25.38.38,0,0,1-.22.13l-.42.11Z"/><path class="cls-14" d="M18.53,55.43a.41.41,0,0,1-.17-.21,1.08,1.08,0,0,1-.06-.38v-.56a1.31,1.31,0,0,1,.06-.41.87.87,0,0,1,.17-.3.54.54,0,0,1,.26-.16.35.35,0,0,1,.25,0,.41.41,0,0,1,.18.22,1,1,0,0,1,.06.37v.57a1.29,1.29,0,0,1-.06.4.89.89,0,0,1-.18.3.49.49,0,0,1-.25.16A.33.33,0,0,1,18.53,55.43Zm.38-.42a.53.53,0,0,0,.08-.15,1,1,0,0,0,0-.19v-.58a.9.9,0,0,0,0-.18.24.24,0,0,0-.08-.11.17.17,0,0,0-.12,0,.24.24,0,0,0-.12.07.28.28,0,0,0-.08.15.58.58,0,0,0,0,.19v.59a.48.48,0,0,0,0,.18.16.16,0,0,0,.2.11A.25.25,0,0,0,18.91,55Z"/><path class="cls-14" d="M19.53,53.25l.25-.07v2l-.25.06Zm.1.81.46-.12a.12.12,0,0,0,.07,0,.19.19,0,0,0,.05-.09.53.53,0,0,0,0-.13.41.41,0,0,0,0-.12.13.13,0,0,0-.05-.07.08.08,0,0,0-.07,0l-.46.12v-.37l.48-.12a.27.27,0,0,1,.2,0,.42.42,0,0,1,.13.18,1,1,0,0,1,0,.31,1.08,1.08,0,0,1,0,.32.84.84,0,0,1-.13.25.41.41,0,0,1-.2.12l-.48.12Zm.28.23.27-.13.36.84-.31.08Z"/><path class="cls-14" d="M20.57,53l1-.25v.36l-1,.25Zm.37.07.25-.07v1.85l-.25.06Z"/></g></g></svg>