<svg id="Layer_1" data-name="Layer 1" xmlns="http://www.w3.org/2000/svg" viewBox="0 0 80 72"><defs><style>.cls-1{fill:#fcd09a;}.cls-2{fill:#f2b675;}.cls-3{fill:#f90;}.cls-4{fill:#004870;}.cls-5{fill:#f9c791;}</style></defs><polygon class="cls-1" points="64.38 28.04 44.14 44.26 50.56 20.74 59.95 13.47 64.38 28.04"/><path class="cls-2" d="M19.15,39.2l4.58-10,8.56-5.44H39l-1.83,3.71L34,29.91,31.2,34.65s-2,7.63-2.61,8.15S19.15,39.2,19.15,39.2Z"/><path class="cls-2" d="M19.33,38.67s12.23-8.81,13-9c2.54-.75,13.23-1.11,13.23-1.11L52,26.35a3,3,0,0,1,3.81,1.81l.06.15c.56,1.5,0,2-1.43,2.66l-4.52,1.7,3.36.12c1.67-.39,2.09,2,1.7,3.61v.05a2.31,2.31,0,0,1-1.58,1.68l-4.51.57.79.09a2.42,2.42,0,0,1,1.61,3.93l0,.05a2.43,2.43,0,0,1-2.14.88l-3.35-.35.76.71a2.8,2.8,0,0,1,0,4.13l0,0a2.75,2.75,0,0,1-2,.74L17.24,52.24Z"/><path class="cls-1" d="M50.56,20.74l-8.3-.37a7.59,7.59,0,0,0-7.57,5.28l-2.4,7.49v9.62s2.31,1.21,3-.86,1.15-8,1.15-8l9.07-5.32,5-1.71Z"/><polygon class="cls-3" points="70.28 30.01 58 37.33 58 15.05 70.28 5.79 70.28 30.01"/><polygon class="cls-4" points="9.72 41.99 20.85 34.32 21.52 57.43 9.72 66.21 9.72 41.99"/><path class="cls-5" d="M32.91,55.85l-3.28,1.27A4.7,4.7,0,0,1,24,55.26l-2-3.2a1.87,1.87,0,0,1,1.2-2.86h.06a4.45,4.45,0,0,1,4.37,1.62Z"/><path class="cls-5" d="M37.3,54.52l-2.92,1.12a4.18,4.18,0,0,1-5-1.64l-1.82-2.83a1.67,1.67,0,0,1,1.08-2.53h.05a4,4,0,0,1,3.88,1.44Z"/><path class="cls-5" d="M42.31,53.6l-2.92,1.12a4.18,4.18,0,0,1-5-1.64l-1.82-2.83a1.67,1.67,0,0,1,1.08-2.53h0a4,4,0,0,1,3.88,1.44Z"/><path class="cls-1" d="M45.15,48.83,42.31,53.6c-1.44.68-2.51-.79-3.34-2.37l-1.42-2.68a1.68,1.68,0,0,1,.84-2.4h0c1.14-.27,3.21,1.79,3.92,2.9Z"/></svg>