<svg id="Layer_1" data-name="Layer 1" xmlns="http://www.w3.org/2000/svg" viewBox="0 0 80 72"><defs><style>.cls-1{fill:#231f20;}</style></defs><path class="cls-1" d="M28.15,24.77l1.52,10.35H28l-.09-1c-.05-.47-.11-.95-.15-1.42l-.09-.87-.15-1.53c0-.37-.06-.75-.09-1.17L24,35.35l-3.5-6.17-.67,5.94H18.33l1.42-10.28h0L24,32.07Z"/><path class="cls-1" d="M70,24.78l7,6.87V25H78.5V35.43l0,0-6.93-7v6.69H70Z"/><path class="cls-1" d="M49.67,35.13V25h2.48a6.1,6.1,0,0,1,3.08.74,4.4,4.4,0,0,1,1.71,1.66,4.5,4.5,0,0,1,.59,1.88,6.16,6.16,0,0,1-.27,2.76A4.19,4.19,0,0,1,56,33.93,5.33,5.33,0,0,1,53.44,35a6.12,6.12,0,0,1-1,.08l-2.58,0Zm1.58-1.42c.72,0,1.43,0,2.12-.13a2.89,2.89,0,0,0,1.91-1.16A3.86,3.86,0,0,0,56,30a4.58,4.58,0,0,0-.15-1,2.88,2.88,0,0,0-1.58-2,4.13,4.13,0,0,0-1.87-.42H51.25Z"/><path class="cls-1" d="M38.3,25c.9,0,1.79,0,2.67,0a3.48,3.48,0,0,1,1.88.56A2.62,2.62,0,0,1,44,27.5a3.1,3.1,0,0,1-.14,1.57,2.93,2.93,0,0,1-1.16,1.39c-.18.12-.38.2-.58.31l3,4.36H43.49a.29.29,0,0,1-.22-.1l-1.63-2.37-1-1.43a.27.27,0,0,0-.19-.1c-.2,0-.4,0-.62,0v4H38.3Zm1.45,4.82c.46,0,.91,0,1.36,0a1.22,1.22,0,0,0,.88-.55,2.2,2.2,0,0,0,.35-1.34,1.61,1.61,0,0,0-.71-1.31c-.58-.44-1.23-.27-1.88-.31Z"/><path class="cls-1" d="M62.83,25h5.79v1.26H64.45v3.13h3.83v1.27H64.44v3.23h4.42v1.26h-6Z"/><path class="cls-1" d="M31,25h5.75v1.26H32.62v3.13h3.83v1.27H32.62v3.23H37v1.26H31Z"/><path class="cls-1" d="M2.93,26.21c-.06.14-.12.25-.17.37a2.29,2.29,0,0,0-.16.55,3.2,3.2,0,0,0,.28,1.67,3.13,3.13,0,0,0,1.66,1.48,5.82,5.82,0,0,0,2.22.44.28.28,0,0,0,.3-.18A14.94,14.94,0,0,1,8.65,27.8,17.93,17.93,0,0,1,10.08,26a4.3,4.3,0,0,1,2.43-1.3,1.78,1.78,0,0,1,1.09.11,1.05,1.05,0,0,1,.47,1.13,5.28,5.28,0,0,1-1.22,2.47,6.78,6.78,0,0,1-2.62,1.93,7.2,7.2,0,0,1-1.86.54.7.7,0,0,0-.56.4C7.44,31.85,7,32.4,6.64,33a5.86,5.86,0,0,1-.62.7c-.14.15-.31.28-.51.46.63.12,1.23.24,1.83.33a7.33,7.33,0,0,0,1.14.11,3.74,3.74,0,0,0,2.33-.82,5.39,5.39,0,0,0,1.1-1.23,6.87,6.87,0,0,1,2.13-2,2,2,0,0,1,1.41-.19.63.63,0,0,1,.47.45c.08.24-.06.4-.17.56a3.65,3.65,0,0,1-2.28,1.52c-.31.08-.63.11-1,.17a.22.22,0,0,0-.13.1c-.09.38-.2.75-.26,1.14a.66.66,0,0,0,.62.8,1.88,1.88,0,0,0,1.56-.48,4.34,4.34,0,0,0,1.14-1.27.22.22,0,0,1,.38,0A5,5,0,0,1,14,35.14a2.38,2.38,0,0,1-2,0,1,1,0,0,1-.57-.82,6,6,0,0,1-.09-.61c-.3.31-.58.63-.88.92A2.52,2.52,0,0,1,9,35.37a5.55,5.55,0,0,1-2.39-.32c-.5-.16-1-.35-1.49-.53a.14.14,0,0,0-.11,0,3.2,3.2,0,0,1-1.71.73,4,4,0,0,1-2.13-.06.9.9,0,0,1-.43-.28.76.76,0,0,1,.25-1.05,3.35,3.35,0,0,1,.77-.27,3.71,3.71,0,0,1,.67,0,10.32,10.32,0,0,1,2,.25c.13,0,.26.07.39.09a.32.32,0,0,0,.33-.11,9.39,9.39,0,0,0,1.52-2.27c.07-.17.13-.35.2-.54-.35,0-.69,0-1-.09a4.61,4.61,0,0,1-2.58-1,2.83,2.83,0,0,1-.93-1.8,4.25,4.25,0,0,1,.1-1.55C2.43,26.3,2.62,26.19,2.93,26.21ZM8.19,30.6l.35,0a5.69,5.69,0,0,0,1.69-.65,8.4,8.4,0,0,0,2.13-1.62,5.76,5.76,0,0,0,1.13-1.76,1.49,1.49,0,0,0,.09-1,.93.93,0,0,0-1.21-.41,3.23,3.23,0,0,0-.87.56,7.06,7.06,0,0,0-1.28,1.5c-.42.63-.83,1.27-1.21,1.92C8.72,29.55,8.48,30.05,8.19,30.6Zm-7.37,4c.72.84,2.8.64,3.58-.34a4.66,4.66,0,0,0-2.65-.35A1.19,1.19,0,0,0,.82,34.56Zm11.82-1.79c.1,0,.13,0,.16,0a5.16,5.16,0,0,0,1.67-.61,2.33,2.33,0,0,0,1-1.2c.11-.27,0-.42-.3-.43a1.15,1.15,0,0,0-.71.28,7.84,7.84,0,0,0-.91.82C13.24,32,13,32.36,12.64,32.77Z"/><path class="cls-1" d="M47.83,35.13H46.32V25h1.51Z"/><path class="cls-1" d="M59.28,25h1.51V35.12H59.28Z"/><path class="cls-1" d="M68.16,36.64c.61,0,1.21,0,1.8,0a1.26,1.26,0,0,1,1.24.87,1.24,1.24,0,0,1-.34,1.37,3.63,3.63,0,0,1-.65.35l1.21,2c-.27,0-.49,0-.72,0a.15.15,0,0,1-.11-.08c-.33-.56-.67-1.11-1-1.68a.33.33,0,0,0-.35-.21,2.35,2.35,0,0,1-.38,0v2h-.71Zm.68,2.16h.29c.23,0,.46,0,.69,0a1.19,1.19,0,0,0,.27-.07.81.81,0,0,0,.43-1,.63.63,0,0,0-.4-.5,3.68,3.68,0,0,0-1.28-.08Z"/><path class="cls-1" d="M59.22,41.26h-.74l-.35-1.15H56.34s-.11.07-.13.13c-.11.33-.21.67-.32,1h-.72c.12-.38.25-.76.37-1.13.37-1.1.74-2.21,1.1-3.31a.24.24,0,0,1,.29-.21h.6c.11,0,.17,0,.21.14C58.22,38.24,58.72,39.74,59.22,41.26Zm-2-4.12h0l-.8,2.5H58Z"/><path class="cls-1" d="M67.55,41.26h-.74l-.35-1.15H64.68c-.05,0-.11.07-.13.12-.12.34-.22.68-.33,1H63.5c.11-.35.22-.68.33-1,.38-1.16.77-2.31,1.15-3.46a.23.23,0,0,1,.27-.19,4.14,4.14,0,0,0,.61,0,.2.2,0,0,1,.22.16C66.56,38.25,67.06,39.74,67.55,41.26Zm-2.84-1.62h1.62l-.79-2.51h0Z"/><path class="cls-1" d="M75.52,41.25h-.71c.13-.42.26-.82.4-1.23.35-1.08.72-2.15,1.07-3.24a.23.23,0,0,1,.26-.18h.65c.06,0,.15,0,.16.1.51,1.51,1,3,1.51,4.54h-.75l-.35-1.14H76a.19.19,0,0,0-.14.11ZM76,39.63h1.62l-.79-2.49h0Z"/><path class="cls-1" d="M71.58,37.26v-.61H75v.6H73.66v4h-.73v-4Z"/><path class="cls-1" d="M52.55,39.85c.05.19.1.38.16.56a.58.58,0,0,0,.63.35.59.59,0,0,0,.53-.48,2.19,2.19,0,0,0,0-.36c0-1,0-2,0-3v-.23h.71c0,.05,0,.1,0,.14,0,1.07,0,2.14,0,3.2a1.22,1.22,0,0,1-.87,1.28A1.47,1.47,0,0,1,52.23,41a1.35,1.35,0,0,1-.32-.87S52,40,52,40Z"/><path class="cls-1" d="M63.22,36.64l-1.75,2.1,1.87,2.52c-.28,0-.52,0-.76,0a.22.22,0,0,1-.14-.09L60.78,38.9a.18.18,0,0,1,0-.27c.46-.57.91-1.13,1.36-1.71.15-.18.29-.33.56-.28A4,4,0,0,0,63.22,36.64Z"/><path class="cls-1" d="M59.82,36.65h.7v4.6h-.7Z"/></svg>