<svg id="Layer_1" data-name="Layer 1" xmlns="http://www.w3.org/2000/svg" xmlns:xlink="http://www.w3.org/1999/xlink" viewBox="0 0 80 72"><defs><style>.cls-1{fill:none;}.cls-2{fill:#263876;}.cls-3{fill:#357862;}.cls-4{clip-path:url(#clip-path);}.cls-5{fill:#7f7771;}.cls-6{clip-path:url(#clip-path-2);}.cls-7{clip-path:url(#clip-path-3);}</style><clipPath id="clip-path"><path class="cls-1" d="M47,39.5l-2.09,0c-.14-.41-.29-.83-.43-1.25l-.51-1.53a.17.17,0,0,0-.19-.13l-4.61,0a.22.22,0,0,0-.22.13L37.3,39.32s-.09.1-.13.1h-2c.09-.16.17-.31.26-.45l2-3,1.89-3c.43-.68.87-1.36,1.31-2,.31-.49.62-1,.94-1.48a.23.23,0,0,1,.23-.14c.53,0,1.07,0,1.6,0,.12,0,.17,0,.21.16.41,1.24.84,2.48,1.26,3.72l1,3,1.1,3.17S46.94,39.42,47,39.5Zm-4.7-8.38-2.44,4,3.67,0C43.09,33.79,42.55,32.46,42.26,31.12Z"/></clipPath><clipPath id="clip-path-2"><path class="cls-1" d="M56.13,31.24c-.45-.18-.89-.38-1.35-.53A4.4,4.4,0,0,0,53,30.42a1.62,1.62,0,0,0-1.5.91,1.17,1.17,0,0,0,.34,1.51,11.28,11.28,0,0,0,1.78,1,12.14,12.14,0,0,1,1.45,1,2.13,2.13,0,0,1,.77,1.51,3.18,3.18,0,0,1-.71,2.34,3.14,3.14,0,0,1-1.62,1,4.78,4.78,0,0,1-1.77.14,7.87,7.87,0,0,1-1.51-.28,4.87,4.87,0,0,1-1.36-.65.27.27,0,0,1-.09-.2c.06-.46.13-.92.2-1.38a.26.26,0,0,1,0-.09c.41.24.81.51,1.24.72a4,4,0,0,0,2.07.54,1.73,1.73,0,0,0,1.74-1.25,1.36,1.36,0,0,0-.56-1.6c-.41-.27-.85-.49-1.28-.72a7.26,7.26,0,0,1-2-1.27,2.12,2.12,0,0,1-.6-1.46,3,3,0,0,1,.54-1.8A3.29,3.29,0,0,1,52,29.21a4.64,4.64,0,0,1,1.89-.14,6.8,6.8,0,0,1,1.62.36c.25.09.48.2.72.29s.11.14.1.23C56.26,30.38,56.19,30.81,56.13,31.24Z"/></clipPath><clipPath id="clip-path-3"><path class="cls-1" d="M34.35,31.07c-.44-.17-.87-.36-1.3-.51a4.55,4.55,0,0,0-1.78-.31,1.62,1.62,0,0,0-1.44.75,1.23,1.23,0,0,0,.31,1.73,10.25,10.25,0,0,0,1.71,1,5.71,5.71,0,0,1,1.66,1.18,2.25,2.25,0,0,1,.58,1.44,3.23,3.23,0,0,1-.53,1.93,3.13,3.13,0,0,1-1.94,1.31,4.42,4.42,0,0,1-1.45.14,6.59,6.59,0,0,1-3-.9.3.3,0,0,1-.15-.36c.07-.46.14-.91.22-1.39l.11,0a6.09,6.09,0,0,0,2.29,1.14,2.52,2.52,0,0,0,1.83-.12,1.63,1.63,0,0,0,.87-1.22,1.34,1.34,0,0,0-.69-1.48c-.56-.33-1.15-.61-1.71-.92a5.34,5.34,0,0,1-1.5-1,2.08,2.08,0,0,1-.56-1.38,2.86,2.86,0,0,1,.47-1.75A3.28,3.28,0,0,1,30.23,29a4.85,4.85,0,0,1,1.69-.17,6.76,6.76,0,0,1,2.12.5,4.25,4.25,0,0,1,.43.21.18.18,0,0,1,.08.15C34.49,30.18,34.42,30.63,34.35,31.07Z"/></clipPath></defs><path class="cls-2" d="M64.45,36.11a9.89,9.89,0,0,0,1.92-1.61,4.58,4.58,0,0,0,.56-.8,2.25,2.25,0,0,0-.15-2.47,4.9,4.9,0,0,0-1.52-1.38,15.65,15.65,0,0,0-3.84-1.62A38.61,38.61,0,0,0,55.69,27a77.63,77.63,0,0,0-11.9-.64q-3.78.06-7.53.41a87.77,87.77,0,0,0-9.41,1.37,47.91,47.91,0,0,0-8.7,2.54c-.75.3-1.48.66-2.2,1a.3.3,0,0,1,.08-.07,14.7,14.7,0,0,1,3.37-2,43.5,43.5,0,0,1,7.35-2.47A80.84,80.84,0,0,1,35.5,25.5c2.34-.33,4.69-.57,7-.74a101.41,101.41,0,0,1,10.17-.24,71.67,71.67,0,0,1,7.31.54,36.7,36.7,0,0,1,7.12,1.52,12.65,12.65,0,0,1,2.92,1.34,4.67,4.67,0,0,1,1.28,1.15,2.21,2.21,0,0,1,.18,2.57A5.18,5.18,0,0,1,70,33.29a16.48,16.48,0,0,1-3.76,2.09C65.66,35.64,65.06,35.87,64.45,36.11Z"/><path class="cls-3" d="M69,37.57c-.26.19-.51.39-.78.57A20.3,20.3,0,0,1,64,40.3a50.71,50.71,0,0,1-8.46,2.41q-2.82.57-5.67,1c-1.41.22-2.83.37-4.25.52s-2.72.25-4.08.34-2.53.14-3.79.16c-1.7,0-3.4,0-5.1,0q-1.23,0-2.46-.09c-1.31-.09-2.61-.18-3.91-.33s-2.7-.33-4-.56a25.06,25.06,0,0,1-5.87-1.67A7.79,7.79,0,0,1,14,40.64,2.63,2.63,0,0,1,13.13,39a2.24,2.24,0,0,1,.27-1.32,5,5,0,0,1,1.28-1.5,14.38,14.38,0,0,1,3.32-2c.76-.34,1.54-.63,2.31-1l.19-.06a12.75,12.75,0,0,0-1.13.84,7.41,7.41,0,0,0-1.06,1.11,2.4,2.4,0,0,0,.22,3.34A7.4,7.4,0,0,0,20.79,40a22.84,22.84,0,0,0,4.76,1.55,41.87,41.87,0,0,0,5.09.84q2,.2,3.9.33c2.29.17,4.59.18,6.89.14,1.09,0,2.18,0,3.27-.12,1.79-.12,3.57-.25,5.35-.43a74.82,74.82,0,0,0,11.89-2.13,35.78,35.78,0,0,0,6.27-2.25l.8-.4Z"/><g class="cls-4"><rect class="cls-3" x="37.19" y="24.26" width="5.83" height="29.78" transform="translate(0.65 78.96) rotate(-89.56)"/><rect class="cls-5" x="39.18" y="20.44" width="1.92" height="29.78" transform="translate(4.5 75.19) rotate(-89.56)"/><rect class="cls-2" x="37.28" y="16.59" width="5.77" height="29.78" transform="translate(8.38 71.41) rotate(-89.56)"/></g><path d="M39.59,50.13a5.1,5.1,0,0,0,.71-1.67,2.25,2.25,0,0,0-.1-.9c-.05-.37,0-.6.33-.72s.3,0,.26.2a8.81,8.81,0,0,1-.22,1,.72.72,0,0,0,0,.52,1,1,0,0,1,.07.18l0,0-.16-.19c-.14.36-.25.74-.42,1.1s-.41.67-.62,1l-.06,0-.6-1.83-1.11,1.82c-.07-.33-.12-.64-.2-.94a8.64,8.64,0,0,0-.7-2,1.27,1.27,0,0,0-.85-.76c-.54-.1-1.11,0-1.27.66a1.32,1.32,0,0,0,.3,1.24.1.1,0,0,1,0,.1,2,2,0,0,1-.22-.19,1.35,1.35,0,0,1-.34-1.23.86.86,0,0,1,.67-.64,2,2,0,0,1,1.73.19,1.22,1.22,0,0,1,.45.6c.25.72.49,1.44.72,2.15.19-.3.39-.66.61-1a.47.47,0,0,0,0-.47,4.08,4.08,0,0,1-.19-.84.67.67,0,0,1,.65-.73.42.42,0,0,1,.44.39,1.94,1.94,0,0,1-.38,1,.46.46,0,0,0,0,.41L39.54,50S39.57,50.07,39.59,50.13ZM39,48.27c.1-.2.19-.34.25-.49a3.23,3.23,0,0,0,.11-.54.23.23,0,0,0-.2-.28.24.24,0,0,0-.32.2,1.93,1.93,0,0,0,0,.33C38.82,47.74,38.89,48,39,48.27Z"/><path d="M22.86,49.84a2.67,2.67,0,0,0,.05.33.28.28,0,0,0,.4.18c.22-.1.43-.24.64-.36l.13-.07,0,.06a4.4,4.4,0,0,1-.41.31,1.49,1.49,0,0,1-.75.28.5.5,0,0,1-.51-.51V50l-.74.52c-.06,0-.15,0-.23,0a1.64,1.64,0,0,1,0-.22,2.77,2.77,0,0,1,0-.3c-.15.14-.3.29-.47.43s-.52.15-.6-.1a.9.9,0,0,1,0-.28,1.77,1.77,0,0,1,.48-1.24.93.93,0,0,1,.4-.19,3,3,0,0,1,.44-.05c.05-.25.09-.49.12-.74s.07-.45.1-.68a.57.57,0,0,0,0-.13.23.23,0,0,0-.12,0l-.36.19c0-.19.61-.54.89-.51l-.5,3.46a1.65,1.65,0,0,0,.24-.06,3.18,3.18,0,0,0,.37-.27s0-.11.06-.17a1.4,1.4,0,0,1,.54-.93,1.17,1.17,0,0,1,.8-.15.19.19,0,0,1,.15.27,1.14,1.14,0,0,1-.49.59Zm-1.16-1.1c-.33-.09-.5,0-.63.23a3,3,0,0,0-.23.66,2.11,2.11,0,0,0,0,.56s.12.09.14.08a1.14,1.14,0,0,0,.56-.66Q21.63,49.19,21.7,48.74Zm1.16.91a1.51,1.51,0,0,0,.8-.51c.07-.08.13-.19,0-.28a.46.46,0,0,0-.55.11C23,49.18,22.94,49.4,22.86,49.65Z"/><path d="M48.08,49.11a2.27,2.27,0,0,1,.67-1.7,1.83,1.83,0,0,1,2.2-.22,1.41,1.41,0,0,1,.59,1.06A2.59,2.59,0,0,1,51.13,50a1.75,1.75,0,0,1-1.26.77,1.46,1.46,0,0,1-1.1-.2A1.59,1.59,0,0,1,48.08,49.11Zm.44.18a3.43,3.43,0,0,0,.09.58,1,1,0,0,0,1,.78,1.35,1.35,0,0,0,1.23-.89,3.08,3.08,0,0,0,.27-1.67,1.27,1.27,0,0,0-.44-.86,1.21,1.21,0,0,0-1.71.42A3.57,3.57,0,0,0,48.52,49.29Z"/><path d="M26.23,48.42c-.14-.25-.29-.5-.41-.76a1.05,1.05,0,0,1-.1-.52c.05-.31.24-.43.58-.46a11.34,11.34,0,0,1,1.3,0h0l1.24,0a.48.48,0,0,0,.49-.21A.44.44,0,0,1,29,47l-.32,0-.35,0c-.11.54-.24,1.1-.32,1.67a5.71,5.71,0,0,0,0,1.17c0,.31.2.36.43.15s.22-.21.33-.31a.71.71,0,0,1,.14-.1l.05.06-.61.62a1.21,1.21,0,0,1-.22.15c-.38.26-.59.1-.66-.31a4.65,4.65,0,0,1,.21-1.89c.09-.31.22-.62.34-.93a2.32,2.32,0,0,1,.21-.29H26.44l-.1,0c-.33.1-.38.22-.32.6a1.74,1.74,0,0,0,.13.36l.15.33Z"/><path d="M57.45,50a1.1,1.1,0,0,1-.59.64,1.55,1.55,0,0,1-1.81-.14,1.09,1.09,0,0,1-.38-.72,2.73,2.73,0,0,1,.45-2,2,2,0,0,1,1.32-.9,2,2,0,0,1,1.13.13.32.32,0,0,1,.19.41,3.62,3.62,0,0,1-.2.55H57.5a1.22,1.22,0,0,0,0-.27.48.48,0,0,0-.12-.27,1.19,1.19,0,0,0-1.83.21,2.6,2.6,0,0,0-.32,2.1,1,1,0,0,0,.72.77,1.38,1.38,0,0,0,1.17-.27Z"/><path d="M15,48.76s-.09,0-.11,0a2.11,2.11,0,0,1-.68-.93.72.72,0,0,1,.56-1,3.85,3.85,0,0,1,.89-.15c.44,0,.89,0,1.33,0a2.43,2.43,0,0,1,1.09.23.86.86,0,0,1,.49.81,1.38,1.38,0,0,1-.05.46.84.84,0,0,1-.77.62h-.08l-.1.06a5,5,0,0,0,1.27,1.62c-.43.05-.6.08-.87-.33s-.53-.84-.79-1.26c0,0,0-.08-.05-.12.17,0,.32,0,.47,0,.57-.11.7-.52.62-1a1.06,1.06,0,0,0-1-.89,4.93,4.93,0,0,0-2,.14.85.85,0,0,0-.61.48.84.84,0,0,0,0,.8C14.77,48.42,14.89,48.57,15,48.76Z"/><path d="M65.24,51a1.87,1.87,0,0,0-.2.29,5.38,5.38,0,0,0-.31.64.28.28,0,0,0,.32.39.66.66,0,0,0,.55-.58c.06-.41.13-.82.19-1.22a.49.49,0,0,0,0-.11,7.34,7.34,0,0,1-.73.46c-.33.15-.43.05-.47-.29A1.87,1.87,0,0,1,65,49.25a.74.74,0,0,1,.43-.24,4.17,4.17,0,0,1,.71,0c.1,0,.18,0,.16.16l-.27,1.74c0,.27-.07.55-.12.82-.09.44-.44.64-.8.81a1.16,1.16,0,0,1-.32.08c-.24,0-.36-.12-.31-.37A2,2,0,0,1,65.24,51ZM66,49.11a.5.5,0,0,0-.76.23,1,1,0,0,0-.08.22,6.06,6.06,0,0,0-.13.82c0,.24.08.28.28.17a1.43,1.43,0,0,0,.21-.12c.16-.13.36-.22.37-.48S65.91,49.39,66,49.11Z"/><path d="M29.06,50.6c.05-.35.09-.67.14-1l.15-1,.18-1.24a.86.86,0,0,0,0-.23l-.19.07-.2.1-.05-.07c.17-.12.34-.24.52-.35a1.23,1.23,0,0,1,.29-.09,1.93,1.93,0,0,1,0,.34c0,.31-.08.62-.13.93s-.07.57-.11.86a3.88,3.88,0,0,1,.46-.22.64.64,0,0,1,.24,0c.3,0,.39.1.35.41s-.09.67-.12,1a.65.65,0,0,0,0,.19.93.93,0,0,0,.2-.07,1.52,1.52,0,0,1,.33-.2c0,.06,0,.13-.1.16a5.19,5.19,0,0,1-.62.42c-.16.1-.25,0-.23-.14,0-.35.09-.71.13-1.06a1.33,1.33,0,0,0,0-.28c0-.23-.16-.33-.37-.24a.65.65,0,0,0-.43.55c0,.33-.07.65-.12,1a.19.19,0,0,1-.1.1Z"/><path d="M58.26,47.32l-.35.21,0-.08.51-.35a1.49,1.49,0,0,1,.3-.09,1.93,1.93,0,0,1,0,.34c0,.31-.09.62-.13.93s-.08.58-.11.82a3.83,3.83,0,0,1,.68-.21c.31,0,.4.08.37.4s-.09.67-.12,1a.65.65,0,0,0,0,.19.68.68,0,0,0,.2-.07l.32-.24c0,.26-.26.32-.39.45a.92.92,0,0,1-.32.18c-.17.07-.25,0-.23-.15,0-.35.09-.71.13-1.06a1.32,1.32,0,0,0,0-.28c0-.23-.15-.33-.37-.24a.64.64,0,0,0-.42.56c0,.32-.07.65-.12,1a.21.21,0,0,1-.1.11,2.91,2.91,0,0,1-.28.1c.16-1.17.34-2.32.49-3.48Z"/><path d="M51,51.94l.21,0c.41.05.59-.15.64-.61s.15-1,.23-1.51c0-.29.07-.58.11-.89h-.4v0a.33.33,0,0,1,.1-.06c.1,0,.28,0,.31,0a1.17,1.17,0,0,0,.09-.42c.06-.35.1-.7.17-1s.39-.49.69-.6a.87.87,0,0,1,.36,0c.18,0,.24.12.22.36a3.38,3.38,0,0,0-.54-.17.31.31,0,0,0-.36.27c-.07.41-.13.82-.2,1.22l-.06.45.46,0V49h-.47c0,.28-.09.53-.13.79-.06.42-.13.84-.19,1.26a2.63,2.63,0,0,1-.18.82,1.15,1.15,0,0,1-.92.38c-.07,0-.11-.14-.17-.21Z"/><path d="M61.6,50.54l.51-.36,0,.06a2.43,2.43,0,0,1-.8.62c-.14.06-.17,0-.17-.11v-.39c-.15.13-.32.3-.51.45s-.46.09-.55-.2a1.73,1.73,0,0,1,.53-1.53,2,2,0,0,1,.58-.14,2.35,2.35,0,0,1,.53,0l-.22,1.56Zm-.22-1.42c0-.09-.05-.12-.16-.11a.38.38,0,0,0-.38.17,1.85,1.85,0,0,0-.19.37,1.7,1.7,0,0,0-.13.92c0,.11.11.16.17.1a2,2,0,0,0,.54-.56A3.66,3.66,0,0,0,61.38,49.12Z"/><path d="M42.34,48.79c-.05.28-.09.54-.13.8s-.06.51-.1.76l.06,0,.52-.37,0,.06a2.29,2.29,0,0,1-.77.61c-.16.08-.2,0-.2-.13s0-.27,0-.38c-.17.15-.35.34-.55.49a.31.31,0,0,1-.51-.18,1.65,1.65,0,0,1,.52-1.57,1.75,1.75,0,0,1,.6-.14A2.88,2.88,0,0,1,42.34,48.79Zm-.37.13a.38.38,0,0,0-.52.08,1.75,1.75,0,0,0-.22.4,1.54,1.54,0,0,0-.12.92c0,.11.1.15.17.1a1.1,1.1,0,0,0,.55-.61C41.89,49.51,41.93,49.21,42,48.92Z"/><path d="M17.12,47c-.06.39-.12.78-.19,1.16a9,9,0,0,1-.33,1.64,1.38,1.38,0,0,1-2.06.57l-.1-.06.32-.33a1.13,1.13,0,0,0,.75.42c.44,0,.6-.12.72-.51a8.59,8.59,0,0,0,.24-1.12c.08-.45.11-.91.22-1.35,0-.17.26-.3.39-.45Z"/><path d="M62.38,50.91l.25-1.76-.38.13,0-.06.74-.38,0,.35a.9.9,0,0,1,.7-.28c.18,0,.31.12.3.3s-.06.6-.1.91c0,.1,0,.2,0,.3s0,.09,0,.09a.2.2,0,0,0,.15,0,3.55,3.55,0,0,0,.31-.23l.08,0,0,0c-.16.13-.31.27-.48.4a1.52,1.52,0,0,1-.36.18c-.11,0-.18,0-.16-.16l.18-1.19a.55.55,0,0,0,0-.18c0-.09,0-.23-.08-.24a.53.53,0,0,0-.33,0c-.34.15-.35.48-.38.78a2.84,2.84,0,0,1-.1.66C62.72,50.69,62.53,50.77,62.38,50.91Z"/><path d="M43.43,49c-.23,0-.43-.08-.51.25-.06-.37,0-.42.25-.45a2.67,2.67,0,0,1,.4,0h.15a7.27,7.27,0,0,0-.2.77,2.75,2.75,0,0,0,0,.64.39.39,0,0,0,.19.23.25.25,0,0,0,.32-.1,7.54,7.54,0,0,0,.38-.75.26.26,0,0,0,0-.17.59.59,0,0,0,0-.08c-.21-.34-.18-.44.19-.59.13-.06.21,0,.19.12a5.12,5.12,0,0,1-.1.54c0,.1-.06.19,0,.26s0,.07,0,.1l0,0-.13-.08c-.14.23-.26.46-.4.68a.6.6,0,0,1-.7.3.7.7,0,0,1-.35-.63A1.89,1.89,0,0,1,43.43,49Z"/><path d="M32.92,50.05a1.74,1.74,0,0,1-1.27.58.48.48,0,0,1-.39-.41,1.64,1.64,0,0,1,.58-1.39,1.24,1.24,0,0,1,.8-.15.19.19,0,0,1,.14.27,1.1,1.1,0,0,1-.49.59c-.19.12-.4.23-.63.36a2.73,2.73,0,0,0,.06.34.27.27,0,0,0,.38.18,6.15,6.15,0,0,0,.66-.37l.13-.06Zm-1.25-.35a1.5,1.5,0,0,0,.81-.5c.05-.08.11-.19,0-.27a.46.46,0,0,0-.55.11A5.66,5.66,0,0,0,31.67,49.7Z"/><path d="M45.29,50a2.67,2.67,0,0,0,.05.33.28.28,0,0,0,.39.19c.22-.1.43-.24.64-.36l.19-.1a1.56,1.56,0,0,1-1.33.66.47.47,0,0,1-.34-.4A1.64,1.64,0,0,1,45.44,49a1.29,1.29,0,0,1,.81-.16.19.19,0,0,1,.16.26,1,1,0,0,1-.48.57C45.74,49.75,45.53,49.87,45.29,50Zm0-.18a1.57,1.57,0,0,0,.8-.51c.07-.08.11-.19,0-.28a.48.48,0,0,0-.57.11A6.83,6.83,0,0,0,45.29,49.83Z"/><path d="M67,50.18a1.66,1.66,0,0,0,.06.33.28.28,0,0,0,.38.19,6.91,6.91,0,0,0,.65-.38l.14-.06,0,.06c-.14.1-.27.22-.42.31a1.4,1.4,0,0,1-.75.28.48.48,0,0,1-.5-.42,1.61,1.61,0,0,1,.58-1.39,1.32,1.32,0,0,1,.78-.15.2.2,0,0,1,.16.26,1,1,0,0,1-.45.56ZM67,50a1.66,1.66,0,0,0,.79-.52c.07-.08.12-.19,0-.27s-.5-.05-.56.11A6.07,6.07,0,0,0,67,50Z"/><path d="M19.67,50.2l.57-.35c0,.06,0,.12,0,.14a6.86,6.86,0,0,1-.64.46c-.19.12-.32,0-.3-.19s.09-.65.14-1c0-.11,0-.22.05-.33s0-.15-.15-.1L19,49l0,0a1.3,1.3,0,0,1,.18-.15l.44-.23c.16-.07.23,0,.21.14-.05.37-.11.73-.17,1.09l0,.33Z"/><path d="M19.64,47.93c-.09,0-.2,0-.19-.22s.11-.26.34-.27a.21.21,0,0,1,.25.21C20.06,47.79,19.87,47.94,19.64,47.93Z"/><g class="cls-6"><rect class="cls-3" x="46.83" y="24.36" width="5.77" height="29.78" transform="translate(10.08 88.66) rotate(-89.56)"/><rect class="cls-5" x="48.78" y="20.52" width="1.92" height="29.78" transform="translate(13.96 84.87) rotate(-89.56)"/><rect class="cls-2" x="46.89" y="16.67" width="5.77" height="29.78" transform="translate(17.84 81.08) rotate(-89.56)"/></g><g class="cls-7"><rect class="cls-3" x="33.86" y="24.26" width="5.77" height="29.78" transform="translate(-2.69 75.6) rotate(-89.56)"/><rect class="cls-5" x="35.81" y="20.42" width="1.92" height="29.78" transform="translate(1.19 71.81) rotate(-89.56)"/><rect class="cls-2" x="33.92" y="16.57" width="5.77" height="29.78" transform="translate(5.07 68.02) rotate(-89.56)"/></g></svg>