<svg id="Layer_1" data-name="Layer 1" xmlns="http://www.w3.org/2000/svg" viewBox="0 0 80 72"><defs><style>.cls-1{fill:#004870;}.cls-2{fill:#fcd09a;}.cls-3{fill:#babec4;}.cls-4{fill:#01405b;}.cls-5{fill:#0f2d38;}.cls-6{fill:#f15a29;}.cls-7{fill:#e0e0e0;}.cls-8{fill:#fff;}</style></defs><path class="cls-1" d="M17.91,58.72a1,1,0,0,1-.42-.08,1.15,1.15,0,0,1-.65-1.49l6.85-17.61a1.15,1.15,0,1,1,2.15.83L19,58A1.16,1.16,0,0,1,17.91,58.72Z"/><path class="cls-1" d="M33.77,58.72A1.16,1.16,0,0,1,32.69,58L25.84,40.37A1.15,1.15,0,0,1,28,39.54l6.85,17.61a1.15,1.15,0,0,1-.66,1.49A1,1,0,0,1,33.77,58.72Z"/><path class="cls-1" d="M25.92,60a1.15,1.15,0,0,1-1.15-1.16V40a1.16,1.16,0,0,1,2.31,0V58.88A1.16,1.16,0,0,1,25.92,60Z"/><rect class="cls-1" x="9" y="56.38" width="62.01" height="3.54"/><path class="cls-1" d="M59.92,55.37c1.07-.13,1.38,2.51.3,2.63l-2.89.34c-.41,0-1,.17-1.19-.29-.31-.63.44-1.24.85-1.6A4.72,4.72,0,0,1,59.92,55.37Z"/><path class="cls-1" d="M58,54.05c1.07-.12,1.38,2.51.3,2.64L55.42,57c-.41,0-1,.17-1.2-.3-.3-.63.44-1.23.86-1.59A4.73,4.73,0,0,1,58,54.05Z"/><rect class="cls-2" x="56.84" y="20.9" width="2.66" height="3.55"/><polygon class="cls-3" points="58.66 23.27 60.22 23.47 57.89 26.04 55.99 25.71 56.27 23.27 57.61 23.14 58.66 23.27"/><path class="cls-2" d="M45.77,26.85a6.41,6.41,0,0,0-1.62-.79c-.48-.16-.68.59-.21.76a5.49,5.49,0,0,1,1.44.7C45.79,27.82,46.18,27.14,45.77,26.85Z"/><path class="cls-2" d="M45.13,26.81c-.89-.1-2.69.45-2.84,1.35s.46,1.18,1.35,1.28l2,.22L46,26.91Z"/><path class="cls-4" d="M54.9,24.16,51,27.27l-5-.59L45.59,30l5.32.62a1.72,1.72,0,0,0,.84-.12l4-2.47a1.73,1.73,0,0,0,.67-.52C56.82,27,55.74,23.79,54.9,24.16Z"/><path class="cls-1" d="M54.47,55.36V35.67a2.1,2.1,0,0,1,4.19,0V55.36Z"/><path class="cls-1" d="M57.12,56.1V38a2,2,0,0,1,2.09-2,2.31,2.31,0,0,1,2.09,1.21V55.32Z"/><path class="cls-1" d="M53.42,30.36l1.48-6.2,1.37-.89c.09,0,.42,4.89.42,4.89l2.7-4.11s.74-.61.83-.58L63,26l-1,17.18-3.15-.29L53.42,40.5Z"/><path class="cls-1" d="M63.32,26.93a1.55,1.55,0,1,0-3.1,0v13.9h3.1Z"/><path class="cls-2" d="M60.22,40.83v.84a1.55,1.55,0,1,0,3.1,0v-.84Z"/><path class="cls-2" d="M56.76,22.34h0c-1.47-.38-2-2-2.07-3.87a10.68,10.68,0,0,1,.17-1.37,3,3,0,0,1,3.78-1.79h0A2.93,2.93,0,0,1,61,18.68,9.67,9.67,0,0,1,60.5,20C59.52,21.56,58.22,22.71,56.76,22.34Z"/><path class="cls-5" d="M55.19,16.65a.24.24,0,0,1,.38,0,1,1,0,0,0,.7.39,20.69,20.69,0,0,1,2.79.2c.45.23.16.6.35,1.31s.28.6.73.09.83.94-.22,1.88c-.28.25-.54.58-.16.43s2.49-2.19,1.36-4.51-3.69-1.87-4.35-1.75C55.4,15,54.37,17.27,55.19,16.65Z"/><polygon class="cls-6" points="58.37 23.67 57.61 23.14 56.84 23.27 57.12 24.45 56.27 26.04 56.69 28.16 58.17 26.5 57.47 24.51 58.37 23.67"/><polygon class="cls-7" points="57.61 23.14 59.51 22.41 60.22 23.47 58.17 24.45 57.61 23.14"/><polygon class="cls-7" points="56.84 22.68 57.61 23.14 56.69 24.16 56.27 23.27 56.84 22.68"/><path class="cls-4" d="M60.08,23.27a14.87,14.87,0,0,0-2.21,2.3c-1.38,1.72-1.18,2.59-1.18,2.59l1.77-1.36-.23-.41h.68L60.84,24Z"/><polygon class="cls-4" points="56.27 23.27 56.69 28.16 55.75 26.26 56.07 26.04 55.75 25.85 55.63 23.68 56.27 23.27"/><rect class="cls-8" x="14.28" y="12.73" width="23.11" height="32.27" rx="5.23"/><path class="cls-1" d="M32.17,45.77H19.51a6,6,0,0,1-6-6V18a6,6,0,0,1,6-6H32.17a6,6,0,0,1,6,6V39.77A6,6,0,0,1,32.17,45.77ZM19.51,13.5A4.46,4.46,0,0,0,15.05,18V39.77a4.46,4.46,0,0,0,4.46,4.46H32.17a4.46,4.46,0,0,0,4.45-4.46V18a4.46,4.46,0,0,0-4.45-4.46Z"/></svg>