<svg id="Layer_1" data-name="Layer 1" xmlns="http://www.w3.org/2000/svg" xmlns:xlink="http://www.w3.org/1999/xlink" viewBox="0 0 80 72"><defs><style>.cls-1{fill:none;stroke:#154899;stroke-miterlimit:10;stroke-width:0.2px;}.cls-2{fill:url(#linear-gradient);}.cls-3{fill:url(#linear-gradient-2);}.cls-4{fill:#1d4195;}.cls-5{fill:#f7941d;}.cls-6{fill:#939598;}</style><linearGradient id="linear-gradient" x1="6.46" y1="28.34" x2="6.46" y2="41.63" gradientUnits="userSpaceOnUse"><stop offset="0" stop-color="#0c53a2"/><stop offset="1" stop-color="#2f318b"/></linearGradient><linearGradient id="linear-gradient-2" x1="13" y1="29.25" x2="13" y2="43.39" xlink:href="#linear-gradient"/></defs><ellipse class="cls-1" cx="8.95" cy="36" rx="8.23" ry="8.14"/><path class="cls-2" d="M11.47,28.85a3.29,3.29,0,0,0-1.84.62C7.88,30.76,8.17,33.56,8.23,34s.06.24.2,1a13.3,13.3,0,0,1,.32,3.07c-.05,1-.13,2.35-1.12,3.07a3.05,3.05,0,0,1-1.89.47,3.92,3.92,0,0,1-2.43-.89,6.24,6.24,0,0,1-1.67-3.13,7.61,7.61,0,0,1,2.21-7.19A6.94,6.94,0,0,1,6,29c.06,0,.31-.13.66-.24a7.08,7.08,0,0,1,3.4-.32A6.12,6.12,0,0,1,11.47,28.85Z"/><path class="cls-3" d="M9.84,43.39a7.18,7.18,0,0,0,.86-2.14,7.77,7.77,0,0,0,.19-2A11.2,11.2,0,0,0,10.34,36c-.17-.52-.23-.57-.43-1.21a8.81,8.81,0,0,1-.48-2,4.37,4.37,0,0,1,.68-2.82,2,2,0,0,1,.78-.64,2.08,2.08,0,0,1,.74-.16,3.7,3.7,0,0,1,2.61,1.16,6.19,6.19,0,0,1,1.34,1.77,8.2,8.2,0,0,1,1,3.56,8.06,8.06,0,0,1-2.23,5.52,7.89,7.89,0,0,1-4.52,2.13Z"/><path class="cls-4" d="M20,35.29,19,37.8h-.59l2.76-7.26h.69l2.88,7.26h-.63l-1-2.51Zm3-.52c-.83-2.15-1.26-3.19-1.41-3.68h0c-.19.55-.67,1.84-1.35,3.68Z"/><path class="cls-4" d="M26.08,30.54h.58v6.75h4l-.11.51H26.08Z"/><path class="cls-4" d="M31.85,30.54h.58v6.75h4l-.11.51H31.85Z"/><path class="cls-5" d="M40.54,35.85a1.91,1.91,0,0,0,2.12,1.54c1.38,0,1.91-.66,1.91-1.45s-.38-1.33-2-1.73-2.28-.88-2.28-1.93.72-1.84,2.33-1.84A2.19,2.19,0,0,1,45,32.29h-.6A1.67,1.67,0,0,0,42.56,31c-1.09,0-1.68.48-1.68,1.29s.5,1.11,1.88,1.45c2.12.5,2.43,1.32,2.43,2.2,0,1.06-.81,2-2.55,2a2.38,2.38,0,0,1-2.7-2Z"/><path class="cls-5" d="M51.24,34.24H47.41v3h4.2l-.09.51H46.83V30.54h4.61v.52h-4v2.66h3.83Z"/><path class="cls-5" d="M53.09,30.54h2.49a3.33,3.33,0,0,1,3.49,3.57,3.42,3.42,0,0,1-3.5,3.69H53.09Zm.58,6.75h1.81a2.83,2.83,0,0,0,3-3.15,2.82,2.82,0,0,0-3-3.08H53.67Z"/><path class="cls-5" d="M61.42,35.29l-1,2.51h-.59l2.76-7.26h.69L66.2,37.8h-.63l-1-2.51Zm3-.52c-.83-2.15-1.26-3.19-1.41-3.68h0c-.19.55-.67,1.84-1.35,3.68Z"/><path class="cls-5" d="M68.28,37.8V35.08a.35.35,0,0,0,0-.17l-2.69-4.37h.68c.75,1.24,2.06,3.38,2.38,3.92.32-.54,1.65-2.66,2.45-3.92h.65L68.9,35a.32.32,0,0,0,0,.16V37.8Z"/><path class="cls-5" d="M73.3,30.54v4.4c0,1.93,1.13,2.43,2.19,2.43,1.26,0,2.2-.51,2.2-2.43v-4.4h.59v4.37c0,2.27-1.25,3-2.81,3A2.58,2.58,0,0,1,72.7,35V30.54Z"/><path class="cls-6" d="M29.24,39.64h.2v1.28l1.39-1.28h.26l-1.14,1,1.21,1.41h-.25L29.8,40.81l-.36.31v1h-.2Z"/><path class="cls-6" d="M33.93,40.89h-1.3v1h1.42l0,.17H32.43V39.64H34v.17H32.63v.91h1.3Z"/><path class="cls-6" d="M35.46,39.64h.2v2.29H37l0,.17H35.46Z"/><path class="cls-6" d="M38.75,41.25l-.33.85h-.2l.94-2.46h.23l1,2.46h-.22l-.33-.85Zm1-.18c-.29-.73-.43-1.08-.49-1.25h0c-.06.19-.23.63-.46,1.25Z"/><path class="cls-6" d="M41.73,39.64h.91c.47,0,.79.25.79.68s-.32.71-.82.71h-.68V42.1h-.2Zm.2,1.21h.7c.41,0,.59-.21.59-.52a.51.51,0,0,0-.57-.52h-.72Z"/><path class="cls-6" d="M44.86,41.25l-.33.85h-.2l.94-2.46h.23l1,2.46h-.22l-.33-.85Zm1-.18c-.29-.73-.43-1.08-.49-1.25h0c-.06.19-.23.63-.45,1.25Z"/><path class="cls-6" d="M51.66,42.1H51.5a2.49,2.49,0,0,1,0-.39.83.83,0,0,1-.82.42,1.1,1.1,0,0,1-1.11-1.24,1.14,1.14,0,0,1,1.15-1.29.91.91,0,0,1,1,.73h-.2a.76.76,0,0,0-.81-.55c-.64,0-.93.48-.93,1.1S50,42,50.66,42s.81-.41.81-1v0h-.82V40.8h1Z"/><path class="cls-6" d="M53.53,41.25l-.32.85H53L54,39.64h.23l1,2.46h-.22l-.33-.85Zm1-.18c-.28-.73-.43-1.08-.48-1.25h0c-.06.19-.23.63-.46,1.25Z"/><path class="cls-6" d="M56.52,39.64h.84a1.13,1.13,0,0,1,1.19,1.21,1.16,1.16,0,0,1-1.19,1.25h-.84Zm.19,2.29h.62a1.06,1.06,0,0,0,0-2.12h-.62Z"/><path class="cls-6" d="M60.21,39.64V42.1H60V39.64Z"/><path class="cls-6" d="M61.87,42.1V39.64h.29c.4.59,1.33,2,1.49,2.23h0c0-.35,0-.71,0-1.12V39.64h.2V42.1h-.27l-1.51-2.27h0c0,.32,0,.68,0,1.13V42.1Z"/><path class="cls-6" d="M67.43,42.1h-.16a1.57,1.57,0,0,1,0-.39.83.83,0,0,1-.82.42,1.1,1.1,0,0,1-1.11-1.24,1.14,1.14,0,0,1,1.15-1.29.9.9,0,0,1,1,.73h-.19a.76.76,0,0,0-.81-.55c-.64,0-.93.48-.93,1.1S65.8,42,66.43,42s.81-.41.81-1v0h-.82V40.8h1Z"/></svg>