<svg id="Layer_1" data-name="Layer 1" xmlns="http://www.w3.org/2000/svg" viewBox="0 0 80 72"><defs><style>.cls-1,.cls-2{fill:#f90;}.cls-1,.cls-3,.cls-4,.cls-5,.cls-6{fill-rule:evenodd;}.cls-3{fill:#004870;}.cls-4{fill:#d1d3d4;}.cls-5{fill:#a7a9ac;}.cls-6{fill:#fff;}</style></defs><polygon class="cls-1" points="73.93 44.37 67.14 44.37 68.5 38.49 72.57 38.49 73.93 44.37"/><rect class="cls-2" x="69.86" y="23.11" width="1.36" height="17.64"/><path class="cls-1" d="M73,38.49a2.61,2.61,0,0,0-2.71-2.72,2.72,2.72,0,0,0,0,5.43A2.6,2.6,0,0,0,73,38.49Z"/><path class="cls-3" d="M3.36,23.11,40,9.08l36.64,14L58.1,30.35V24.92C58.1,20.85,48.6,19,40,19s-18.1,1.81-18.1,5.88v5.43Z"/><path class="cls-3" d="M36.38,31.7h9c5.43.45,11.76,1.36,15.38,3.17V24.46c0-4.52-10-6.78-19.45-6.78-10,0-20.36,2.26-20.36,6.78V34.87c3.62-1.81,10-2.72,15.38-3.17Z"/><path class="cls-4" d="M62.62,44.82c0-.45-.45-.45-.91-.45a335.14,335.14,0,0,1-42.52,0c-.45,0-.45,0-.9.45a15.86,15.86,0,0,0-.91,4.53,1,1,0,0,0,.91.9H62.17a1,1,0,0,0,.9-.9,5.6,5.6,0,0,0-.45-4.53Z"/><path class="cls-5" d="M64,49.8a1,1,0,0,0-.91-.91H44.52a1,1,0,0,0-.9.91H37.74a1,1,0,0,0-.91-.91h-19a1,1,0,0,0-.9.91,15.48,15.48,0,0,0,1.36,7.69.44.44,0,0,0,.45.45h0c5.88-.45,11.31-.45,17.19-.45h8.14c5.43,0,11.31.45,17.19.45.45,0,.45,0,.91-.45A13.79,13.79,0,0,0,64,49.8Z"/><polygon class="cls-1" points="40.45 53.42 42.26 54.32 38.64 62.01 37.74 60.2 35.48 60.66 39.09 52.51 40.45 53.42"/><polygon class="cls-1" points="41.36 54.32 40 55.23 44.07 62.92 44.98 60.66 47.24 61.11 43.17 53.42 41.36 54.32"/><path class="cls-1" d="M46.79,51.61h0a.85.85,0,0,0,0-1.36h0c-.46-.45-.46-.45-.46-.9h0A1.66,1.66,0,0,0,45.88,48h0c-.45,0-.45-.45-.45-.91h0a1,1,0,0,0-.91-.9h0c-.45,0-.9,0-.9-.45h0a.87.87,0,0,0-1.36-.46h-.9a.85.85,0,0,0-1.36,0h0c-.45.46-.45.46-.9,0h0a1.64,1.64,0,0,0-1.36.46h0c0,.45-.45.45-.91.45h0a1,1,0,0,0-.9.9h0c0,.46,0,.91-.45.91h0A1.64,1.64,0,0,0,35,49.35h0v.9h0a.85.85,0,0,0,0,1.36h0c.46.45.46.45.46.9h0a1.67,1.67,0,0,0,.45,1.36h0c.45,0,.45.45.45.9h0a1,1,0,0,0,.91.91h0c.45,0,.9,0,.9.45h0a.87.87,0,0,0,1.36.45h.9a.84.84,0,0,0,1.36,0h0c.45-.45.45-.45.9,0h0a1.66,1.66,0,0,0,1.36-.45h0c0-.45.45-.45.91-.45h0a1,1,0,0,0,.9-.91h0c0-.45,0-.9.45-.9h0a1.65,1.65,0,0,0,.46-1.36h0v-.9Z"/><path class="cls-6" d="M45.43,50.7c0-2.26-2.26-4.52-4.53-4.07-2.26,0-4.52,2.26-4.07,4.52,0,2.27,2.27,4.53,4.53,4.08,2.26,0,4.07-1.81,4.07-4.53Z"/><path class="cls-1" d="M45,50.7c0-2.26-1.81-3.62-4.08-3.62s-3.61,1.81-3.61,4.07,1.81,3.62,4.07,3.62A4,4,0,0,0,45,50.7Z"/></svg>