<svg id="Layer_1" data-name="Layer 1" xmlns="http://www.w3.org/2000/svg" viewBox="0 0 80 72"><defs><style>.cls-1{fill:#004870;}.cls-2{fill:#f90;}</style></defs><path class="cls-1" d="M50.07,22.73a9.6,9.6,0,0,1,1.52,0,2.81,2.81,0,0,1,2.44,3c0,5.24,0,10.49,0,15.73,0,4.47,0,8.94,0,13.41,0,3,0,6,0,9a2.84,2.84,0,0,1-2.77,3c-2.32,0-4.64,0-7,0a2,2,0,0,1-.23,0V56.78H40v9.94h-2V56.78H34v10H27.11A2.9,2.9,0,0,1,24,63.62c0-12.45,0-24.89,0-37.34,0-2.6,1.56-3.8,3.58-3.59H28c0-.21.07-.38.1-.56a4,4,0,0,1,4.12-3.45c4.4,0,8.81.06,13.22,0A4.25,4.25,0,0,1,50.07,22.73ZM28,26.68v6h4v-6Zm6,0v6h4v-6Zm10,6v-6h-4v6Zm6,0v-6h-4v6Zm-18,4H28v6h4Zm6,0H34v6h4Zm2,0v6h4v-6Zm10,6v-6h-4v6Zm-22,10h4v-6H28Zm6-6v6h4v-6Zm6,0v6h4v-6Zm6,0v6h4v-6ZM32,62.77v-6H28v6Zm18.06-6h-4v6h4Z"/><path class="cls-2" d="M37,14.88a2.58,2.58,0,0,1,0-.39,8.8,8.8,0,0,1,.3-1.33.9.9,0,0,0-.4-1.18c-.43-.33-.81-.73-1.21-1.09l0-.12a5,5,0,0,1,1.08-.12,1.4,1.4,0,0,0,1.71-1.24A7.6,7.6,0,0,1,39,8.19c.12.24.2.36.26.49.21.52.4,1.06.64,1.57a.58.58,0,0,0,.4.3c.58.08,1.16.11,1.73.17.09,0,.18,0,.36.08-.13.14-.21.25-.3.33-.39.36-.76.73-1.17,1.06a.6.6,0,0,0-.23.74c.14.52.24,1.05.36,1.57,0,.13,0,.26,0,.51-.61-.39-1.13-.69-1.62-1a.65.65,0,0,0-.91,0c-.47.34-1,.64-1.48,1Z"/><path class="cls-2" d="M33.28,14.93c-.42-.28-.86-.54-1.27-.83a.43.43,0,0,0-.56,0c-.41.28-.85.55-1.27.82l-.1-.06a7.24,7.24,0,0,1,.22-1,1.06,1.06,0,0,0-.45-1.43,7.74,7.74,0,0,1-.87-.78c.59-.06,1-.13,1.5-.14a.59.59,0,0,0,.65-.47c.16-.46.36-.9.55-1.36h.11c.19.46.4.92.56,1.4a.55.55,0,0,0,.61.42c.46,0,.92.08,1.38.12l0,.11c-.36.32-.7.68-1.09,1a.64.64,0,0,0-.22.75c.12.48.21,1,.32,1.44Z"/><path class="cls-2" d="M43.73,11.6a12.89,12.89,0,0,1,1.37-.12.61.61,0,0,0,.66-.48c.15-.46.35-.9.58-1.47.15.32.25.53.34.75a5.26,5.26,0,0,1,.25.66.65.65,0,0,0,.74.54,12.14,12.14,0,0,1,1.44.13c-.43.39-.74.72-1.09,1a.74.74,0,0,0-.3.92c.14.44.2.9.3,1.35l-.09.07c-.41-.26-.84-.5-1.24-.78a.48.48,0,0,0-.66,0,6,6,0,0,1-1.33.73,13,13,0,0,1,.3-1.38.68.68,0,0,0-.26-.86c-.37-.28-.69-.61-1-.92Z"/><path class="cls-2" d="M27.8,12.44a10.3,10.3,0,0,1-.84.76.55.55,0,0,0-.2.65c.09.33.15.67.25,1.12-.39-.25-.71-.42-1-.63a.4.4,0,0,0-.52,0c-.29.21-.6.39-1,.64.1-.46.17-.82.26-1.17a.49.49,0,0,0-.18-.58c-.27-.21-.51-.46-.86-.78.45,0,.79-.09,1.13-.11a.48.48,0,0,0,.48-.37c.11-.33.25-.65.43-1.1.18.44.32.75.42,1.07a.52.52,0,0,0,.54.41Z"/><path class="cls-2" d="M53.6,15c-.4-.25-.7-.46-1-.63a.64.64,0,0,0-.47,0c-.32.17-.62.38-1,.63.1-.47.21-.82.25-1.19a.76.76,0,0,0-.17-.52c-.23-.27-.52-.49-.86-.81.46,0,.8-.09,1.15-.11a.42.42,0,0,0,.44-.35c.12-.34.27-.66.45-1.12.17.43.31.73.41,1.05a.54.54,0,0,0,.57.43c.31,0,.62.05,1.08.09-.35.32-.59.57-.86.78a.51.51,0,0,0-.2.61C53.43,14.17,53.5,14.52,53.6,15Z"/></svg>