<svg id="Layer_1" data-name="Layer 1" xmlns="http://www.w3.org/2000/svg" viewBox="0 0 80 72"><defs><style>.cls-1{fill:#004870;}.cls-2{fill:#f90;}</style></defs><path class="cls-1" d="M48,29.62a40.13,40.13,0,0,1-4.06,2.22c-.36,0-1.1.73-1.47,0-.37-.37.37-1.11.74-1.11,1.47-.37,1.1-1.11.73-1.84-.73-1.11,0-2.58-.36-3.69v-.74A60.38,60.38,0,0,0,48,29.62Z"/><path class="cls-1" d="M64.19,21.15c-.74.73-1.85,1.84-3.32,1.1-1.84-1.1-3.69-.73-5.53.37a3.69,3.69,0,0,0-1.47,1.84c0,.37,0,.37-.37.74l-3-2.21-1.11-.74L47.6,20.41A2.22,2.22,0,0,0,48,18.93c.74-2.21,2.21-2.94,4.05-1.84,2.22,1.11,2.22,1.11,4.06-.37-1.11-.37-1.84-1.1-1.48-2.21a2,2,0,0,0-1.1-1.84,21.86,21.86,0,0,0-8.85-3.32c-.37,0-.74.37-1.1.74-1.11,1.84-1.11,3.68-2.22,5.53,0,.37-.36.73-.36,1.1.36,1.48-.74,2.21-1.85,2.58a4.9,4.9,0,0,0-3.68,2.95c-.37.74-1.11.37-1.48-.37-.74-1.1-.37-2.21,0-3.31a4,4,0,0,0,.37-1.85c.74-1.47.74-2.21-.37-3.31-.74-.74,0-2.22,1.85-2.95a2.49,2.49,0,0,0-2.22,1.47c-.73.37-1.1,1.11-1.84.74-.74,0-.74-.74-.37-1.11,0-.37,0-.37-.37-.37s-.73,0-.73.37-.37,1.11-.37,1.48c-.74.37-.37.37,0,.37,2.21.36,1.84,2.21,2.21,3.68a3.75,3.75,0,0,1-.74,3.32c-.74.37-1.1,1.11-1.84.74a2.83,2.83,0,0,1-.74-1.85c0-.37.37-.73.74-1.47.37,0,.37-.74,0-.74-.37-.37-.74.37-.74.37-.37,1.11-1.1,1.47-1.47,2.58a.71.71,0,0,1-1.11.37c-.74-1.11-1.47-.37-1.84,0-.74.74-1.11,1.47-.74,2.21,0,.37.37.74.37,1.11.37.37.37,1.1,1.11.73a1.17,1.17,0,0,0,1.1-1.1c0-.74.37-1.11.74-1.84,0-.37,0-.74.74-.74s1.47.37,1.47,1.1,0,.74.37.37.37,0,.74.37c.73,1.84.36,3.69,1.1,5.16a.8.8,0,0,1-.74.74.7.7,0,0,1-1.1-.37c-.37-.37-.37-1.11-1.11-.74,0,.74,1.11,1.11.37,1.85-.37.36-1.1.36-1.47.73-1.11,0-1.85,1.11-2.58,1.85s-1.48,1.84-2.21,2.58c-.37.36-.37.73,0,1.47,0,.37.36.74,0,1.11-.74,0-1.11-.37-1.11-.74-.74-1.84-2.21-.74-3.32-.37-1.1,0-1.1,1.47-.73,2.21,0,.74.73,1.11,1.47.74.37-.37.74-.74,1.11-.74s.36.37,0,.74c0,.74,0,1.47-.74,1.47a5,5,0,0,1-4.43-1.84c-.36-.37-.36-1.11-1.1-.74-.37,0-.37.74-.37,1.11S13.69,40,13,40c-.74.36-.74-.37-1.1-.74-1.48-3.32-.74-6.64,0-9.95A28.57,28.57,0,0,1,36.91,7.14C48,6,56.82,10.46,63.45,19.3,63.82,19.67,64.92,20.41,64.19,21.15Z"/><path class="cls-1" d="M31,61c-1.84-3-2.58-5.9-3.68-8.85a2.89,2.89,0,0,0-1.48-1.48c0-.36-.37-.36-.37-.73s.37-.37.74-.37l8.85-2.21c.74-.37,1.1,0,1.1.73-.36,1.85-.36,4.06-1.84,5.53s-1.47,4.06-1.84,6.27c0,1.11.37,1.84,1.84,2.21,10.69,2.21,22.49-3,28-12.16A30.33,30.33,0,0,0,66,40.31c0-1.1.37-2.21-.37-3-.37-.36-.37-.73,0-.73a4.84,4.84,0,0,0,1.11-3.69c0-.37.37-1.1.73-1.1.74,0,.74.73.74,1.47.37,5.9-.37,11.43-3.32,16.59C59.4,59.85,50.55,65.38,39.12,65c-9.95,0-18.06-4.42-23.59-12.9-.37-.37-1.1-1.11-.37-1.48a1.77,1.77,0,0,1,2.22.37,8,8,0,0,1,1.47,2.21A31.47,31.47,0,0,0,31,61Z"/><path class="cls-1" d="M56.08,49.16c-.74,1.84-1.84,3-2.58,4.79l-1.11,1.11c-1.47,1.1-2.21.74-3-1.11s-1.47-3.68-1.1-5.9c.37-1.47-1.11-2.58-1.11-4,0-.74,0-1.11.37-1.11l5.53-2.21c.74,2.58,1.47,4.79,2.21,7.37C55.34,48.42,55.34,49.16,56.08,49.16Z"/><path class="cls-1" d="M61.24,39.21c-.37.37-1.11.37-1.48.74V37.73a1.29,1.29,0,0,0,.74-.37c.74,0,1.48,0,1.84.74C62.71,38.47,62,38.84,61.24,39.21Z"/><path class="cls-1" d="M61.24,41.05c.37.74-.37,1.11-.74,1.84-.37.37-.37.74-.74.74v-3C60.5,40.68,60.87,40.31,61.24,41.05Z"/><path class="cls-1" d="M59,43.26a6.5,6.5,0,0,1-1.48,1.85,2.72,2.72,0,0,0-.73,1.47c0,.74,0,1.84-.37,2.21-.74,0-.74-.74-.74-1.47C55,44.74,54.24,42.53,53.5,40a5.22,5.22,0,0,0,2.21-.74c.74-.37,1.84-.37,2.21-1.11.37-.37.37-.37.74-.37V40c-.37,0-.37.36-.74.36h.74A8.12,8.12,0,0,1,59,43.26Z"/><path class="cls-2" d="M68.61,25.94a8.79,8.79,0,0,1-3.32,2.21C63.82,28.89,62,30,60.5,30.73,59.4,31.1,59,31.84,59,33.31v12.9h0v1.11c-.37,1.1-1.11,1.47-2.21,1.84h-.37c-.74,0-.74-.74-.74-1.47-.74-2.58-1.47-4.8-2.21-7.38A10.68,10.68,0,0,1,52.76,37c-.37-1.48-.74-1.48-1.84-1.11a34,34,0,0,1-5.16,2.58c-1.11.74-.74,1.48-1.11,2.58,0,1.11,0,2.21-1.1,3-.74.37-1.48.37-1.85-.37a22.53,22.53,0,0,0-4.05-8.48.68.68,0,0,1,0-1.1,1.34,1.34,0,0,1,1.84-.74c.37,0,.37,0,.74.37,1.84,1.47,3.68.74,5.53-.74,1.1-.74,2.21-1.1,3.31-1.84.74-.37.74-.74.37-1.48-.37-.36-.73-.73-.73-1.1a29.79,29.79,0,0,1-4.8-4.79,17.93,17.93,0,0,1-2.58-2.58C41,20.78,40.23,20,41,19.3s1.84-1.47,2.94-.73a13.28,13.28,0,0,0,3.32,2.21h0a11.14,11.14,0,0,1,2.58,1.84c.37.37.74.37,1.11.74a32.29,32.29,0,0,0,2.95,1.84c.37.37,1.1.74,1.47,1.11,1.11.73,1.84.73,2.58,0,1.84-1.11,3.32-1.85,5.16-2.95a15.4,15.4,0,0,1,3.69-1.48,2.33,2.33,0,0,1,3,.74C70.09,24.1,69.35,24.83,68.61,25.94Z"/><path class="cls-2" d="M40.23,42.16C34.33,44,28.06,46.21,21.8,47a16.3,16.3,0,0,1-7.37-.37c-3.32-1.11-4.8-3.69-4.06-7.74,3,5.53,7.37,4.42,11.8,3.69A131.13,131.13,0,0,0,37.65,37,13.64,13.64,0,0,1,40.23,42.16Z"/></svg>